<?xml version="1.0" encoding="utf-8"?>
<!-- Generator: Adobe Illustrator 23.0.2, SVG Export Plug-In . SVG Version: 6.00 Build 0)  -->
<svg version="1.1" id="Layer_1" xmlns="http://www.w3.org/2000/svg" xmlns:xlink="http://www.w3.org/1999/xlink" x="0px" y="0px"
	 width="100px" height="100px" viewBox="0 0 100 100" style="enable-background:new 0 0 100 100;" xml:space="preserve">
<g>
	<path style="fill:#FFFFFF;" d="M45.47,42.28c0,1.38,0,2.76,0,4.14c0,1.45-0.02,2.9,0.01,4.35c0.03,1.37-0.13,2.75,0.11,4.1
		c1.09,0,2.07,0,3.11,0c0-5.9,0-11.72,0-17.61c-1.56,0-3.04,0-4.66,0c-1.81,4.2-3.62,8.42-5.51,12.82
		c-2.02-4.37-3.56-8.75-5.51-12.83c-1.64,0-3.07,0-4.62,0c-0.24,6.75-0.14,16.4,0.2,17.69c0.91-0.06,1.85,0.14,2.86-0.16
		c0-4.19,0-8.33,0-12.47c2.1,4.17,3.78,8.48,5.68,12.56c1.07,0,1.95,0,2.84,0c1.79-4.23,3.56-8.41,5.33-12.59
		C45.35,42.28,45.41,42.28,45.47,42.28z"/>
	<path style="fill:#FFFFFF;" d="M21.27,50.97c0.88,1.25,1.06,2.81,1.97,3.9c1.16,0,2.26,0,3.37,0c-0.15-1.11-7.45-16.25-8.49-17.64
		c-1.19,0-2.41,0-3.83,0c-2.87,5.85-5.89,11.56-8.53,17.58c1.33,0.23,2.48,0.1,3.63,0.12c0.61-1.41,1.14-2.78,1.96-3.96
		C14.72,50.97,17.99,50.97,21.27,50.97z M16.42,40.19c0.96,2.6,2.58,4.85,3.35,7.62c-2.33,0-4.53,0-6.86,0
		C13.32,46.25,15.65,41.21,16.42,40.19z"/>
	<path style="fill:#FFFFFF;" d="M71.18,54.8c-0.25-1.18-7.77-16.61-8.55-17.57c-1.22,0-2.44,0-3.68,0
		c-0.15,0.18-0.32,0.34-0.42,0.53c-2.66,5.43-5.32,10.86-7.97,16.29c-0.13,0.26-0.18,0.51,0.06,0.9c1.02-0.08,2.11,0.13,3.23-0.12
		c0.65-1.29,1.29-2.57,1.9-3.79c1.65-0.19,8.76-0.17,10.12,0.02c0.78,1.17,1.01,2.64,1.92,3.88c0.93,0,1.93,0.01,2.93-0.01
		C70.88,54.93,71.03,54.85,71.18,54.8z M57.4,47.68c0.8-2.64,2.36-4.91,3.45-7.45c1.07,2.57,2.67,4.79,3.41,7.39
		C63.06,47.97,58.99,48.01,57.4,47.68z"/>
	<path style="fill:#FFFFFF;" d="M93.84,57.42c-2.09-0.53-3.63,0.28-5.08,1.34c-0.71,0.52-1.24,1.22-1.78,1.91
		c-0.11-0.02-0.23-0.03-0.34-0.05c-0.21-1.31-1.06-2.38-1.4-3.64c0.01-0.24,0.02-0.47,0.04-0.71c1.45,0,2.91,0.12,4.34-0.04
		c2.06-0.22,4.18-0.48,5.35-2.58c0.03-1,0.14-2.02-0.75-2.94c-0.51-0.02-0.8-0.67-1.45-0.79c-1.53-0.3-2.93-0.18-4.67,0.26
		c-1.73,0.44-3.25,1.3-4.8,2.12c-0.12-0.02-0.24-0.03-0.36-0.05c-0.02-1.11-0.74-1.98-1.04-2.99c0.01-0.14,0.02-0.27,0.03-0.41
		c2.53,0.2,5.05,0.12,7.54-0.34c1.32-0.25,2.65-0.57,3.83-1.28c0.52-0.31,1.07-0.6,1-1.34c0,0,0,0,0.01,0c0,0,0-0.01,0-0.01
		c0.21-0.02,0.45,0.04,0.62-0.29c0-0.73,0-1.56,0-2.43c-0.31-0.46-0.64-0.96-0.91-1.36c-2.56-1.7-5.17-1.39-7.83-0.69
		c-2.4,0.64-4.5,1.91-6.62,3.13c0,0,0,0,0-0.01c0,0-0.01,0-0.01,0c-0.19-1.25-0.88-2.32-1.46-3.6c2.35-1.23,4.34-3.13,7.19-2.81
		c1.18-0.62,2.4-0.94,3.6-1.33c0.72-0.23,1.27-0.62,1.37-1.44c-0.46-1.17-0.46-1.17-1.32-1.89c-0.39,0-0.87,0.11-1.27-0.02
		c-2.49-0.79-4.73-0.15-6.98,0.98c-1.52,0.76-2.97,1.62-4.47,2.41c0,0,0,0,0-0.01c-0.01,0-0.01,0-0.01,0
		c-0.51-2.14-1.73-3.98-2.46-6.04c-1.37,0.07-2.63-0.14-4.07,0.16c1.25,2.62,2.43,5.14,3.87,7.54c0.02,0.24,0.16,0.34,0.39,0.34
		c-1.09,1.36-2.14,2.73-2.61,4.46c-0.5,1.85,0.2,3.32,1.89,3.91l0.16,0l0.16,0.01c0.44,0.8,1.16,1.04,2.02,1
		c0.01,0.23,0.01,0.46,0.02,0.68c-0.57,0.77-0.78,1.71-0.93,2.59c-0.18,1.04,0.18,2.07,1.13,2.73c0.09,0.06,0.31-0.05,0.46-0.08
		c0.02,0.16-0.03,0.42,0.06,0.47c1.02,0.65,1.96,1.55,3.33,1.18c-0.42,1.28-1.33,2.39-1.34,3.83c0.39,0.64,0.25,1.65,1.28,1.88
		c1.79,1.38,3.85,1.52,5.99,1.4c0.02-0.31,0.03-0.48,0.04-0.64c0,0,0.01,0,0.01,0c0,0,0,0,0,0c0.2,0.02,0.44-0.08,0.57,0.17
		c-0.62,1.29-0.97,2.57,0.14,3.96c0.32-0.57,0.24-1.02,0.3-1.44c0.21,0.01,0.41,0.02,0.62,0.03c0.62,1.63,1.48,3.14,2.28,4.61
		c0.34,0.04,0.56,0.06,0.76-0.18c0-0.12,0.05-0.31-0.01-0.44c-0.65-1.56-1.31-3.12-2-4.67c-0.17-0.37-0.19-0.9-0.74-1
		c0.13-0.37,0.47-0.42,0.78-0.53c0.2,0.18,0.42,0.17,0.66,0.09c0.79-0.14,1.61-0.16,2.37-0.32c1.05-0.23,2.29-0.17,2.99-1.27
		c0.5,0.02,0.74-0.19,0.62-0.71C95.11,59.03,94.82,57.98,93.84,57.42z M85.2,33.58c0.2,0.59-0.18,0.74-0.65,0.99
		c-0.22-0.2-0.38-0.35-0.54-0.5C84.29,33.5,84.7,33.43,85.2,33.58z M89.31,52.97c0.51-0.15,1.07-0.05,1.61-0.29
		c0.44-0.2,0.97-0.02,1.42,0.24c-0.01,0.11-0.02,0.22-0.03,0.33c-2.26,1.37-4.8,1.57-7.35,1.72l-0.03-0.03
		C86.1,53.66,87.77,53.44,89.31,52.97z M85.18,45.26c2.06-0.83,4.22-1.19,6.45-0.99c0.01,0.21,0.02,0.42,0.03,0.63
		c-1.81,1.32-3.86,1.96-6.08,2.02c-1.1,0.03-2.2,0-3.3,0c0,0,0,0,0,0c0,0,0,0,0,0C82.98,45.92,84.14,45.68,85.18,45.26z M73.9,45.92
		c-0.01-0.12-0.02-0.25-0.03-0.37c0.26-1.21,1.09-1.98,2.01-2.7c0.1,0.04,0.2,0.06,0.31,0.08c0,1.07,0.79,1.77,1.24,2.63
		c0.17,0,0.33,0,0.49,0c0-0.1,0.03-0.19,0.08-0.24c-0.05,0.05-0.08,0.14-0.08,0.24h0c0,0.01,0,0.01,0,0.01l0,0c0,0,0.01,0,0.01,0
		c-0.14,0.47-0.5,0.67-0.93,0.8c-0.15-0.03-0.3-0.06-0.45-0.09C75.66,46.22,74.84,45.64,73.9,45.92z M79.87,54.13
		c-1.25-0.13-2.2-1.07-3.43-1.18c0.48-1.46,1.32-2.69,2.48-3.7c0.13,0,0.26,0.01,0.39,0.01c0.64,1.38,1.25,2.77,2.07,4.01
		c0.23,0,0.4,0,0.56,0c0,0,0,0.01,0,0.01c0,0,0,0,0.01,0c-0.43,0.73-1.11,1.22-1.69,1.8C80.26,54.7,80.33,54.18,79.87,54.13z
		 M79.87,60.31c0.57-1.82,1.88-3.09,3.27-4.3c0.1-0.09,0.31-0.05,0.47-0.07c0,0.01-0.01,0.01-0.01,0.02c0.01,0,0.01-0.01,0.01-0.01
		c-0.13,0.22-0.26,0.45-0.41,0.71c0.5,1.63,1.68,2.97,2.09,4.65c0,0,0,0,0,0c0,0,0,0,0,0C83.4,61.45,81.62,61,79.87,60.31z"/>
	<path style="fill:#FFFFFF;" d="M47.84,66.44c-0.06,0.33,0.21,0.82-0.49,0.91c-0.47-0.59-0.85-1.34-1.73-1.76
		c-0.88,1.21-0.32,2.46-0.42,3.6c0.32,0.13,0.53,0.16,0.81-0.04c0.04-0.64,0.08-1.35,0.11-1.92c1.31,0.16,0.94,2.1,2.52,2.11
		c0.17-1.24,0.17-2.42,0-3.66C48.11,65.75,47.92,66.03,47.84,66.44z"/>
	<path style="fill:#FFFFFF;" d="M47.29,62.61c0.09-1.19,0.26-2.37,0.04-3.56c-0.3-0.02-0.52-0.11-0.77,0.08
		c-0.41,0.79-0.84,1.63-1.27,2.47c-0.73-0.41-0.37-1.39-1.14-1.65c-0.07-0.75-0.43-0.84-1.02-0.49c0.01,0.2,0.02,0.35,0.03,0.5
		c-0.03,0.89-0.25,1.8,0.26,2.94c0.58-0.95,0.15-1.81,0.45-2.54c0.67,0.68,0.54,1.72,1.26,2.34c1.19-0.37,0.75-1.76,1.57-2.29
		C47.01,61.11,46.43,62.02,47.29,62.61z"/>
	<path style="fill:#FFFFFF;" d="M14.81,66.68c0.89-0.7,1.5-0.35,2,0.22c0.27-0.19,0.47-0.31,0.45-0.6
		c-0.11-0.32-0.36-0.51-0.71-0.63c-0.58,0.02-1.19-0.1-1.71,0.06c-0.7,0.5-0.68,1.04-0.32,1.65c0.65,0.46,1.57,0.32,2.27,0.98
		c-0.59,0.46-1.12,0.34-1.73,0.27c-0.14-0.52-0.44-0.86-1.09-0.33c0.7,1.18,1.76,1.09,2.75,0.99c0.74-0.51,0.73-1.05,0.47-1.55
		C16.53,67.01,15.59,67.2,14.81,66.68z"/>
	<path style="fill:#FFFFFF;" d="M21.43,65.7c-0.61,0-1.22,0-1.83,0c-0.73,0.41-1.09,1.07-1.26,1.92c0.27,0.63,0.52,1.31,1.31,1.69
		c0.92,0.06,1.95,0.21,2.49-0.94C22.64,67.3,22.26,66.45,21.43,65.7z M21.61,68.15c-0.78,0.57-0.78,0.57-2.03,0.37
		c-0.41-0.66-0.35-1.24-0.15-1.86c0.72-0.53,1.41-0.53,2.08-0.01C21.76,67.18,21.69,67.67,21.61,68.15z"/>
	<path style="fill:#FFFFFF;" d="M10.53,66.71c0.71-0.87,1.37-0.1,1.95-0.08c0.24-0.42,0.17-0.7-0.18-0.93c-0.58,0-1.19,0-1.77,0
		c-0.4,0.29-0.76,0.55-0.87,0.97c0.4,1.31,1.9,0.88,2.76,1.71c-0.98,0.57-1.67,0.36-2.33-0.28c-0.12-0.12-0.31-0.01-0.43,0.15
		c0.03,0.49,0.45,0.71,0.84,1.06c0.91,0.06,1.75,0.13,2.39-0.59c0.02-0.32,0.15-0.66-0.11-0.93C12.26,67.06,11.25,67.21,10.53,66.71
		z"/>
	<path style="fill:#FFFFFF;" d="M53.25,59.05c0,1.24,0,2.37,0,3.58c0.96-0.06,1.92,0.31,2.57-0.64c0.9,0.02,0.72-0.78,1.02-1.21
		c-0.22-0.46-0.41-0.85-0.55-1.14C55.3,58.81,54.29,58.94,53.25,59.05z M53.95,61.97c-0.25-0.71-0.09-1.42-0.13-2.1
		c0.79-0.57,1.36-0.05,1.99,0.23c0,0.67,0,1.27,0,1.87C55.21,61.97,54.61,61.97,53.95,61.97z"/>
	<path style="fill:#FFFFFF;" d="M43.04,65.68c-0.56,0-1.12,0-1.63,0c-0.43,0.25-0.74,0.56-0.96,0.95c0,0.61,0,1.21,0,1.76
		c0.29,0.43,0.58,0.76,1.06,0.95c0.65-0.11,1.54,0.38,1.93-0.66c0.87-0.53,0.68-1.35,0.63-2.08C43.75,66.16,43.47,65.82,43.04,65.68
		z M43.42,68.67c-0.59,0-1.19,0-1.74,0c-0.89-0.48-0.58-1.22-0.58-1.8c0.55-0.81,1.23-0.51,1.76-0.55
		C43.83,67.01,43.28,67.91,43.42,68.67z"/>
	<path style="fill:#FFFFFF;" d="M7.61,67c0.02-0.43,0.08-0.88-0.21-1.26c-0.22-0.05-0.51-0.16-0.63,0.02
		C6.07,66.8,5.49,67.9,5,69.04c-0.02,0.05,0.11,0.16,0.18,0.24c0.65,0.03,0.61-0.71,0.96-0.89c0.62,0,1.17,0,1.5,0
		c0.67,0.16,0.5,0.93,1.11,0.89C8.84,68.2,8.5,67.52,7.61,67z M6.73,67.6c-0.2-0.3-0.17-0.58,0.05-0.85c0.38-0.23,0.5,0.3,0.82,0.26
		c-0.02,0.2-0.05,0.39-0.07,0.53C7.22,67.77,6.98,67.71,6.73,67.6z"/>
	<path style="fill:#FFFFFF;" d="M6.71,59.42c-0.44,0.95-0.92,1.99-1.39,3.03c-0.01,0.02,0.07,0.08,0.12,0.13
		c0.56,0.17,0.63-0.53,1.18-0.63c0.38,0,0.88,0,1.41,0c0.08,0.13,0.17,0.26,0.26,0.39c0.13,0.18,0.26,0.37,0.64,0.13
		c-0.1-1.12-0.79-2.04-1.35-3C7.43,59.22,7.1,59.26,6.71,59.42z M7.52,61.19c-0.32,0.21-0.61,0.15-0.95-0.05
		c0.13-0.5,0.33-0.73,0.68-0.84C7.73,60.48,7.67,60.82,7.52,61.19z"/>
	<path style="fill:#FFFFFF;" d="M31.67,61.97c0.53,0,1.02,0,1.4,0c0.51,0.12,0.6,0.82,1.32,0.54c-0.48-1.14-0.97-2.24-1.8-3.5
		c-1.03,1.13-1.66,2.19-1.87,3.54C31.41,62.72,31.33,62.03,31.67,61.97z M32.58,60.02c0.16,0.34,0.33,0.67,0.47,0.96
		c-0.21,0.53-0.57,0.24-0.87,0.36C31.9,60.71,32.07,60.33,32.58,60.02z"/>
	<path style="fill:#FFFFFF;" d="M32.07,65.65c-1.12,1.22-2.13,3.36-1.75,3.64c0.1-0.03,0.24-0.02,0.3-0.09
		c0.25-0.28,0.48-0.57,0.74-0.89c0.65,0.04,1.31,0.08,1.97,0.12c0.08,0.18-0.05,0.5,0.31,0.5c0.19-0.19,0.09-0.39,0.09-0.58
		C33.36,67.33,33.08,66.26,32.07,65.65z M31.73,67.5c-0.04-0.4,0.19-0.62,0.52-0.81c0.13,0.29,0.27,0.58,0.4,0.87
		C32.3,67.78,32,67.77,31.73,67.5z"/>
	<path style="fill:#FFFFFF;" d="M16.96,61.69c0.37-0.83,1.35,0.01,1.68-0.7c-0.15-0.42-0.45-0.32-0.71-0.35
		c-0.32-0.03-0.68,0.12-0.92-0.22c-0.04-0.49,0.29-0.48,0.65-0.51c0.34-0.03,0.81,0.23,1-0.45c-0.71-0.35-1.45-0.09-2.26-0.18
		c0,1.24,0,2.27,0,3.36c0.9-0.01,1.7,0.1,2.51-0.07C18.56,61.53,17.36,62.46,16.96,61.69z"/>
	<path style="fill:#FFFFFF;" d="M23.27,59.82c-0.77-0.95-1.84-0.39-2.9-0.53c0,1.14-0.01,2.13,0.01,3.11c0,0.14,0.2,0.24,0.38,0.21
		c0.53-0.29-0.05-1,0.45-1.27c0.49,0,0.93,0,1.37,0c0.04,0.32,0.07,0.65,0.11,0.97c0.02,0.29,0.21,0.39,0.44,0.29
		c0.25-0.11,0.11-0.23-0.06-0.31c-0.04-0.33-0.08-0.65-0.11-0.98C22.88,60.8,23.47,60.45,23.27,59.82z M21.17,60.62
		c-0.24-0.33-0.22-0.58-0.06-0.87c0.71-0.25,1.3-0.21,1.58,0.69C22.13,60.8,21.62,60.64,21.17,60.62z"/>
	<path style="fill:#FFFFFF;" d="M63.04,59.94c0.12,0.1,0.3,0.01,0.42-0.16c-0.22-0.32-0.49-0.59-0.86-0.78
		c-0.42-0.01-0.86-0.11-1.27,0.05c-1.25,1.18-1.28,1.27-0.96,2.88c1.6,1.08,2.3,1.05,3.09-0.26c-0.86,0.13-1.7,0.8-2.53-0.1
		c-0.08-0.56-0.32-1.21,0.29-1.83C61.82,59.53,62.44,59.46,63.04,59.94z"/>
	<path style="fill:#FFFFFF;" d="M38.98,62.47c0-1.02,0-2.05,0-3.01c-0.28-0.21-0.48-0.18-0.69-0.07c-0.41,0.33,0.16,1.04-0.52,1.28
		c-0.23-0.12-0.47-0.24-0.71-0.36c-0.09-0.07-0.19-0.09-0.29-0.06c-0.03-0.32,0.04-0.67-0.28-0.9c-0.27-0.07-0.54-0.14-0.71,0.11
		c0,1.06,0,2.08,0,3.24c0.93-0.75,0.44-1.58,0.45-2.35c0.16-0.01,0.31-0.02,0.47-0.03c-0.01,0.11,0.01,0.21,0.06,0.3
		c0.15,0.55,0.51,0.93,0.97,1.26C38.12,62.16,38.18,63.04,38.98,62.47z"/>
	<path style="fill:#FFFFFF;" d="M24.42,68.46c-0.2-0.69-0.1-1.4-0.04-2.1c0.78-0.19,1.53,0.01,2.47,0.33
		c-0.62-1.44-1.57-0.96-2.4-0.95c-0.06,0.23-0.1,0.39-0.14,0.54c-0.86,0.06-0.68,0.84-0.94,1.22c0.4,1.53,1.36,2,2.76,1.78
		c0.38-0.32,0.93-0.53,0.72-1.38C26.06,68.51,25.35,69.08,24.42,68.46z"/>
	<path style="fill:#FFFFFF;" d="M38.59,65.67c-0.31,1.22-0.12,2.38-0.12,3.84c1.33-0.75,0.74-1.74,0.87-2.52
		C39.43,66.45,39.4,65.89,38.59,65.67z"/>
	<path style="fill:#FFFFFF;" d="M57.87,59.36c0.08,1.08-0.27,2.2,0.33,3.23c0.44-1.18,0.34-2.37,0.2-3.55
		C58.07,59.01,57.85,59.11,57.87,59.36z"/>
	<path style="fill:#FFFFFF;" d="M28.77,69.27c0.28-1.18,0.4-2.36-0.07-3.54C28.34,66.92,28.24,68.1,28.77,69.27z"/>
	<path style="fill:#FFFFFF;" d="M24.77,59.37c-0.09,1.08-0.28,2.17,0.28,3.24c0.42-0.92,0.25-1.86,0.3-2.78
		C25.35,59.51,25.23,59.3,24.77,59.37z"/>
	<path style="fill:#FFFFFF;" d="M29.98,60.25c-0.13-1.14-1.11-0.84-1.63-1.21c-0.39,0.24-1.02,0.19-1.05,0.87
		c-0.21,0.05-0.44,0.06-0.57,0.36c-0.06,0.48-0.09,1.01,0.03,1.54c0.26,0.31,0.5,0.6,0.71,0.85c0.63-0.13,1.21,0.33,1.6-0.33
		c0.45,0.02,0.74-0.1,0.54-0.65c-0.3,0.15-0.53,0.29-0.59,0.6c-0.74,0.13-1.25-0.18-1.6-0.84c0-0.47,0-0.95,0-1.43
		C28.26,59.69,29.08,60.2,29.98,60.25z"/>
	<path style="fill:#FFFFFF;" d="M49.49,61.92c0.04-0.3-0.13-0.65,0.24-0.91c0.45-0.02,0.93-0.04,1.4-0.06
		c0.09-0.03,0.23-0.04,0.24-0.09c0.05-0.19-0.1-0.21-0.24-0.21c-0.51-0.1-1.06,0.1-1.64-0.19c0-0.24,0-0.5,0-0.76
		c0.55-0.02,1.11-0.05,1.66-0.07c0.29-0.01,0.56-0.03,0.55-0.42c-1.39-0.33-1.68-0.32-2.55,0.11c0,1,0,2-0.01,3
		c1.01,0.51,1.95,0.47,2.6-0.16C51,61.84,50.22,62.11,49.49,61.92z"/>
	<path style="fill:#FFFFFF;" d="M14.22,62.53c0.06-1.07,0.24-2.14-0.03-3.22c-0.72,0.03-0.92,0.42-0.92,0.99
		c-0.73,0.14-0.41,1.07-1.04,1.41c-0.42-0.43-0.24-1.25-0.94-1.42c-0.02-0.32,0.08-0.67-0.22-0.93c-0.27-0.09-0.54-0.16-0.81,0.21
		c0.04,0.95-0.11,1.99,0.35,3.03c0-0.76,0-1.52,0-2.28c0.11-0.02,0.22-0.04,0.32-0.05l0.16,0.05l0.17,0
		c0.24,0.91,0.01,2.12,1.47,2.36c0.31-0.86,0.59-1.62,0.87-2.38c0.49,0.11,0.3,0.5,0.33,0.8C14,61.58,13.82,62.1,14.22,62.53z"/>
	<path style="fill:#FFFFFF;" d="M70.23,61.95c-0.02-0.88-0.03-1.77-0.05-2.65c-0.03-0.08-0.04-0.22-0.08-0.23
		c-0.17-0.05-0.19,0.1-0.21,0.22c0.12,1.09-0.54,2.14-0.19,3.28c0.2,0,0.36,0,0.52,0c0.49,0.02,0.98,0.05,1.47,0.06
		c0.29,0,0.53-0.08,0.44-0.52C71.53,61.87,70.86,62.08,70.23,61.95z"/>
	<path style="fill:#FFFFFF;" d="M66.41,59.03c-0.3,0.26-0.23,0.6-0.25,0.9c-0.99,0.6-1.21,1.62-1.58,2.61
		c0.85,0.15,0.79-0.63,1.16-0.83c0.58,0,1.13,0,1.66,0c0.28,0.39,0.39,0.97,1.13,0.83c-0.18-0.96-0.8-1.58-1.27-2.28
		C67.2,59.68,67.21,59.07,66.41,59.03z M67.2,61.11c-0.42,0.29-0.83,0.25-1.24,0.07c-0.21-0.47,0.42-0.77,0.24-1.22
		c0.42-0.14,0.66,0.26,1,0.34C67.2,60.58,67.2,60.85,67.2,61.11z"/>
	<path style="fill:#FFFFFF;" d="M36.07,65.75c-0.22,0-0.45,0-0.67,0c-0.45-0.03-0.93-0.26-1.36,0.25c0.42,0.52,0.93,0.26,1.37,0.29
		c0.25,0.97-0.38,2.09,0.54,3.07c0.22-0.81,0.09-1.52,0.13-2.22c0.02-0.32-0.09-0.68,0.31-0.86c0.45-0.02,1.02,0.29,1.36-0.49
		C37.11,65.65,36.6,65.63,36.07,65.75z"/>
</g>
</svg>
