<?xml version="1.0" encoding="utf-8"?>
<!-- Generator: Adobe Illustrator 23.0.2, SVG Export Plug-In . SVG Version: 6.00 Build 0)  -->
<svg version="1.1" id="Layer_1" xmlns="http://www.w3.org/2000/svg" xmlns:xlink="http://www.w3.org/1999/xlink" x="0px" y="0px"
	 width="100px" height="100px" viewBox="0 0 100 100" style="enable-background:new 0 0 100 100;" xml:space="preserve">
<g>
	<g>
		<path style="fill:#FFFFFF;" d="M43.88,17.63C28.85,24.79,26.08,41.75,33.5,52.8c7.21,10.72,22.61,14.44,34.54,5.19
			c-0.67,1.73-5.12,4.59-9.22,6c-3.69,1.27-7.53,1.52-11.29,0.91c-12.95-2.08-20.69-12.71-20.77-24.19
			c-0.04-5.54,1.77-10.65,5.25-15.06C35.12,21.73,39.05,19.01,43.88,17.63z"/>
		<path style="fill:#FFFFFF;" d="M60.79,58.77c12.05-6.84,13.02-20.05,8.44-28.08c-2.97-5.2-7.4-8.53-13.26-9.9
			c-5.84-1.36-11.17-0.02-16.15,3.15c3.9-4.37,12.07-6.56,19.51-4.25c8.39,2.61,13.91,10.15,14.51,18.25
			C74.56,47.71,68.58,55.96,60.79,58.77z"/>
		<path style="fill:#FFFFFF;" d="M11.33,71.06c0.86-0.06,1.18,0.45,1.44,1.09c0.45,1.14,0.94,2.27,1.48,3.55
			c0.6-0.85,0.83-1.7,1.15-2.52c0.21-0.55,0.41-1.1,0.63-1.65c0.11-0.28,0.34-0.4,0.64-0.33c0.26,0.06,0.3,0.27,0.31,0.49
			c0.02,0.91,0.05,1.83,0.04,2.74c-0.01,0.82,0.05,1.61,0.5,2.33c-1.08,0.18-1.11,0.18-1.12-0.61c-0.02-1.17-0.01-2.33-0.25-3.52
			c-0.35,0.94-0.71,1.89-1.06,2.83c-0.13,0.35-0.26,0.7-0.42,1.04c-0.06,0.13-0.21,0.28-0.34,0.31c-0.24,0.05-0.38-0.15-0.46-0.35
			c-0.37-0.89-0.72-1.78-1.09-2.67c-0.12-0.29-0.26-0.58-0.43-0.95c-0.67,1.36-0.5,2.67-0.38,4.05c-0.78,0-1.57,0-2.41,0
			c-0.27-0.19,0.06-0.44,0.02-0.68c-0.21-1.32-1.31-1.96-2.55-1.46c-0.28,0.11-0.36,0.37-0.49,0.6c-0.26,0.48-0.24,1-0.02,1.47
			C6.09,77,5.79,77,5.5,76.79c-0.01-0.11-0.05-0.23-0.02-0.3c0.77-1.53,1.34-3.15,1.84-4.79c0.09-0.28,0.15-0.52,0.47-0.54
			c0.29-0.02,0.55,0.12,0.66,0.37c0.38,0.88,0.74,1.78,1.11,2.67c0.28,0.69,0.54,1.4,0.84,2.08c0.08,0.18,0.26,0.36,0.51,0.32
			c0.23-0.04,0.4-0.19,0.45-0.4c0.07-0.31,0.11-0.63,0.11-0.95C11.47,73.84,11.64,72.42,11.33,71.06z M7.12,73.97
			c0.56,0.17,1.09,0.21,1.67-0.05c-0.28-0.64-0.53-1.2-0.79-1.8C7.37,72.67,7.34,73.33,7.12,73.97z"/>
		<path style="fill:#FFFFFF;" d="M26.29,84.05c-0.53-0.06-1.07,0.38-1.04-0.45c0.01-0.25-0.12-0.52-0.2-0.77
			c-0.31-0.9-1.7-1.37-2.48-0.85c-0.45,0.3-0.4,0.86-0.59,1.28c-0.09,0.2-0.02,0.49-0.02,0.77c-1.69,0-3.34,0-4.97,0
			c0-1.74,0.12-3.45-0.04-5.13c-0.11-1.07,0.45-0.5,0.85-0.63c-0.19,1.42-0.1,2.75-0.11,4.07c-0.01,0.47-0.14,1.06,0.43,1.27
			c0.6,0.22,1.26,0.26,1.86-0.1c0.32-0.2,0.53-0.52,0.66-0.88c0.42,0.26,0.02,0.77,0.44,0.96c0.54-0.21,0.47-0.79,0.64-1.21
			c0.49-1.18,0.92-2.39,1.34-3.59c0.05-0.16-0.15-0.42,0.15-0.49c0.26-0.06,0.57-0.1,0.75,0.14c0.19,0.25,0.34,0.55,0.44,0.85
			C24.9,80.87,25.55,82.4,26.29,84.05z M23.6,79.37c-0.54,0.36-0.49,0.85-0.64,1.23c-0.26,0.68-0.12,0.84,0.6,0.88
			c0.26,0.01,0.54,0.03,0.8-0.24C24.18,80.62,24.05,79.95,23.6,79.37z"/>
		<path style="fill:#FFFFFF;" d="M80.54,73.7c0.42-0.58,1.04-1.12,1-1.79c-0.06-1.09,0.59-0.83,1.33-0.85
			c-0.84,0.94-1.24,2.02-1.8,3.01c-0.38,0.68-0.54,1.37-0.35,2.16c0.15,0.65,0.1,0.66-0.84,0.6c0.31-2.28,0.03-3.24-1.55-5.25
			c-0.52,0.15-0.13,0.68-0.42,0.94c-0.06-0.03-0.15-0.05-0.2-0.11c-0.18-0.26-0.3-0.59-0.54-0.78c-0.43-0.35-1.03-0.09-1.03,0.45
			c0,1.39-0.21,2.8,0.11,4.17c0.23,0.97-0.38,0.63-0.78,0.68c0-1.48,0.01-2.95-0.01-4.42c0-0.35,0.14-0.8-0.35-0.96
			c-0.43-0.14-0.7,0.15-0.91,0.48c-0.06,0.09-0.14,0.16-0.2,0.23c-0.15-1.08-0.15-1.09,0.74-1.13c1.12-0.06,2.24,0.06,3.37-0.1
			c0.53-0.08,1.12,0.04,1.3,0.85C79.55,72.55,80.01,73.11,80.54,73.7z"/>
		<path style="fill:#FFFFFF;" d="M58.69,81.58c0.57,0.75,1.18,1.54,1.79,2.34c-0.43,0.31-0.78,0.15-0.98-0.2
			c-0.52-0.89-1.36-1.5-2.03-2.45c-0.24,0.76-0.1,1.44-0.14,2.09c-0.02,0.33-0.01,0.68-0.45,0.7c-0.26,0.01-0.64,0.19-0.57-0.41
			c0.2-1.74,0.14-3.49,0-5.37c0.72,0,1.46-0.03,2.2,0.01c1.01,0.05,1.62,0.45,1.74,1.11c0.16,0.83-0.12,1.27-1.19,1.8
			C58.92,81.27,58.78,81.31,58.69,81.58z M57.33,79.57c-0.03,1.09,0.08,1.29,0.74,1.3c0.82,0.01,1.51-0.49,1.53-1.11
			c0.02-0.55-0.72-1.09-1.55-1.13C57.33,78.6,57.32,79.09,57.33,79.57z"/>
		<path style="fill:#FFFFFF;" d="M57.75,76.99c-1.75-0.03-3-1.41-2.96-3.27c0.03-1.54,1.43-2.97,2.87-2.84
			c1.92,0.18,2.89,1.33,2.94,3.31C60.63,75.45,59.37,77.2,57.75,76.99z M59.93,74.06c0-1.42-1.03-2.59-2.27-2.58
			c-1.43,0.01-2.08,0.71-2.21,2.36c-0.11,1.34,1.22,2.72,2.45,2.66C59.06,76.46,59.94,75.4,59.93,74.06z"/>
		<path style="fill:#FFFFFF;" d="M85.13,73.89c-0.17-1.55,1.45-3.06,2.72-3.03c2.06,0.05,3.02,1.55,3.09,3.22
			c0.06,1.55-1.28,2.89-2.82,2.91C86.45,77.02,85.12,75.65,85.13,73.89z M87.94,71.48c-1.39,0.04-2.2,0.96-2.15,2.42
			c0.05,1.35,1.18,2.59,2.36,2.61c1.2,0.02,2.17-1.13,2.13-2.52C90.25,72.58,89.19,71.45,87.94,71.48z"/>
		<path style="fill:#FFFFFF;" d="M23.99,71.16c0.9,0,1.8-0.01,2.7,0c0.61,0.01,1.01,0.39,1.2,0.92c0.2,0.56-0.05,1.03-0.47,1.44
			c-0.36,0.34-0.75,0.59-1.35,0.62c0.75,0.94,1.42,1.77,2.14,2.67c-0.51,0.26-0.84,0.09-1.09-0.28c-0.59-0.9-1.35-1.63-2.25-2.47
			c-0.19,1.04-0.11,1.91,0,2.89c-0.36-0.14-0.93,0.4-0.85-0.59C24.18,74.68,24.16,72.98,23.99,71.16z M24.76,72.63
			c0.07,0.43-0.22,1.1,0.67,1.12c0.95,0.02,1.78-0.53,1.81-1.23c0.02-0.56-0.69-1.02-1.57-1.02C24.84,71.5,24.77,71.58,24.76,72.63z
			"/>
		<path style="fill:#FFFFFF;" d="M46.3,75.34c0.06-1.36,0.16-2.59-0.06-3.8c-0.06-0.33,0.12-0.36,0.34-0.37
			c0.18-0.01,0.32,0.1,0.28,0.28c-0.33,1.75,0.03,3.53-0.23,5.52c-1.52-1.45-2.25-3.31-3.7-4.81c-0.16,1.56-0.18,2.96,0.01,4.37
			c0.04,0.25,0.06,0.41-0.25,0.41c-0.24,0-0.45-0.09-0.47-0.33c-0.04-0.43-0.03-0.86-0.03-1.29c0-1.18,0-2.36,0-3.55
			c0-0.22,0.03-0.45,0.25-0.55c0.26-0.12,0.53-0.07,0.74,0.13c0.39,0.37,0.69,0.81,1.02,1.24C44.88,73.47,45.26,74.58,46.3,75.34z"
			/>
		<path style="fill:#FFFFFF;" d="M79.73,79.27c-0.1,1.53-0.13,2.91,0.01,4.28c0.03,0.3,0.12,0.53-0.29,0.52
			c-0.45-0.02-0.24-0.32-0.23-0.56c0.08-1.7,0.09-3.41-0.02-5.19c1.29-0.02,1.55,1.14,2.13,1.88c0.59,0.75,1.08,1.59,1.75,2.58
			c0.16-1.6,0.14-2.98-0.02-4.58c0.32,0.3,1-0.45,0.82,0.72c-0.2,1.26-0.06,2.57-0.08,3.87c-0.01,0.41,0.1,0.85-0.28,1.34
			c-0.95-0.53-1.25-1.56-1.86-2.32C81.03,81.01,80.68,80.01,79.73,79.27z"/>
		<path style="fill:#FFFFFF;" d="M78.04,81.35c-0.01,1.67-1.18,2.91-2.76,2.92c-1.58,0-3.05-1.48-3.06-3.1
			c-0.01-1.6,1.32-3.07,2.82-3.13C76.63,77.98,78.05,79.54,78.04,81.35z M77.39,81.19c-0.02-0.15-0.02-0.48-0.11-0.79
			c-0.37-1.26-1.64-2.03-2.71-1.69c-1.31,0.42-2,1.79-1.55,3.09c0.07,0.2,0.17,0.4,0.27,0.59c0.51,1,1.4,1.52,2.32,1.35
			C76.53,83.57,77.38,82.42,77.39,81.19z"/>
		<path style="fill:#FFFFFF;" d="M69.22,76.97c0.12-1.98,0.14-3.83-0.02-5.82c1.12,0,2.23-0.01,3.35,0
			c0.46,0.01,0.69,0.24,0.52,0.88c-0.75-0.68-1.64-0.56-2.51-0.53c-0.76,0.03-0.56,0.64-0.59,1.08c-0.03,0.47,0.06,0.86,0.67,0.86
			c0.48,0,0.96,0.05,1.38-0.21c0.28,0.39,0.15,0.77,0.15,1.17c-0.32,0.17-0.37-0.24-0.58-0.29c-1.29-0.31-1.67-0.02-1.61,1.3
			c0.03,0.88,0.04,0.88,0.93,0.93c1.55,0.09,1.63,0.06,2.42-0.76c0.13,1.22,0.06,1.34-0.95,1.37C71.31,77,70.24,76.97,69.22,76.97z"
			/>
		<path style="fill:#FFFFFF;" d="M12.06,78.28c0.74,0,1.48-0.03,2.21,0.01c0.99,0.06,1.74,0.81,1.78,1.7
			c0.04,1.09-0.55,1.73-1.74,1.86c-0.21,0.02-0.43,0-0.64,0c-0.41,0-0.56,0.24-0.57,0.6c-0.01,0.37,0,0.75-0.02,1.12
			c-0.02,0.55-0.42,0.55-0.8,0.49c-0.47-0.07-0.14-0.38-0.14-0.6C12.17,81.77,12.26,80.08,12.06,78.28z M13.09,79.97
			C13.1,79.97,13.1,79.97,13.09,79.97c0.01,0.32,0,0.65,0.01,0.97c0.01,0.22,0.11,0.41,0.33,0.5c0.42,0.18,1.44-0.15,1.74-0.6
			c0.33-0.49,0.31-1.03,0.02-1.52c-0.28-0.47-0.84-0.44-1.28-0.61c-0.53-0.2-0.82,0.05-0.82,0.61
			C13.09,79.54,13.09,79.76,13.09,79.97z"/>
		<path style="fill:#FFFFFF;" d="M66.01,79.72c-0.2,0.03-0.28,0.06-0.29,0.04c-0.95-1.21-1.33-1.37-2.31-0.97
			c-1.21,0.5-1.73,1.49-1.5,2.84c0.18,1.04,1.08,2,1.97,2.08c0.93,0.09,1.58-0.61,1.45-1.75c-0.07-0.58,0.24-0.48,0.53-0.48
			c0.2,0,0.44,0.05,0.33,0.37c-0.2,0.57-0.05,1.17-0.12,1.75c-0.02,0.14-0.02,0.33-0.27,0.28c-0.75-0.17-1.41,0.32-2.18,0.25
			c-0.77-0.07-1.32-0.35-1.78-0.92c-0.76-0.95-0.85-2.75-0.19-3.79C62.29,78.4,63.66,78,65,78.23
			C66.04,78.41,65.75,79.14,66.01,79.72z"/>
		<path style="fill:#FFFFFF;" d="M53.72,72.32c-0.78-0.82-1.73-1.09-2.44-0.68c-0.32,0.19-0.66,0.44-0.62,0.87
			c0.03,0.34,0.3,0.57,0.59,0.72c0.23,0.12,0.51,0.18,0.77,0.19c0.38,0.03,0.73,0.13,1.08,0.29c1,0.45,1.18,0.73,1.06,1.71
			c-0.1,0.82-0.6,1.36-1.42,1.53c-0.21,0.04-0.43,0.04-0.64,0.04c-1.38,0.01-1.93,0.07-2.03-1.72c0.44-0.04,0.41,0.37,0.59,0.58
			c0.7,0.84,1.59,0.96,2.4,0.37c0.41-0.29,0.46-0.69,0.45-1.14c-0.01-0.46-0.27-0.65-0.69-0.75c-0.57-0.14-1.14-0.29-1.69-0.48
			c-0.58-0.21-1.07-0.55-1.15-1.22c-0.06-0.55,0.53-1.24,1.21-1.52c0.67-0.27,1.32-0.38,2.03-0.1
			C53.78,71.25,53.92,71.62,53.72,72.32z"/>
		<path style="fill:#FFFFFF;" d="M18.89,71.15c0.97,0,1.98-0.01,2.99,0.01c0.39,0.01,0.39,0.04,0.83,0.73
			c-0.89-0.36-1.46-0.41-2.37-0.4c-0.68,0.01-0.78,0.38-0.78,0.93c0,0.88,0.05,0.96,0.81,1.04c0.21,0.02,0.43,0.01,0.64,0.01
			c0.51-0.01,0.57,0.38,0.66,0.74c-0.12,0.18-0.27,0.14-0.41,0.07c-0.5-0.26-1.1-0.4-1.49-0.01c-0.43,0.44-0.18,1.11-0.15,1.69
			c0.01,0.24,0.21,0.38,0.44,0.38c0.91-0.02,1.87,0.3,2.68-0.43c0.21,0.7,0.05,1.08-0.71,1.08c-1.06-0.01-2.13,0-3.27,0
			C19,75.03,18.88,73.19,18.89,71.15z"/>
		<path style="fill:#FFFFFF;" d="M49.13,79.51c-0.6-0.62-1.22-1.14-2.09-0.87c-0.45,0.14-0.95,0.27-0.99,0.89
			c-0.04,0.59,0.28,0.88,0.82,1.01c0.47,0.11,0.94,0.21,1.4,0.34c0.82,0.24,1.26,0.72,1.32,1.43c0.06,0.62-0.53,1.5-1.23,1.72
			c-0.77,0.23-1.59,0.23-2.35,0c-0.65-0.19-0.67-0.75-0.51-1.42c0.26,0.3,0.44,0.58,0.69,0.79c0.58,0.5,1.63,0.47,2.23-0.02
			c0.69-0.57,0.58-1.45-0.26-1.78c-0.54-0.21-1.15-0.26-1.7-0.45c-0.79-0.28-1.07-0.7-1.07-1.42c0-0.75,0.43-1.14,1.06-1.45
			c0.8-0.4,1.57-0.23,2.32,0.06C49.2,78.51,49.36,78.91,49.13,79.51z"/>
		<path style="fill:#FFFFFF;" d="M30.39,79.62c-0.6-0.56-1.04-1.26-1.9-1.01c-0.52,0.15-1.09,0.23-1.16,0.91
			c-0.07,0.69,0.36,0.94,0.95,1.06c0.42,0.08,0.83,0.19,1.24,0.31c0.9,0.26,1.34,0.8,1.33,1.59c-0.01,0.56-0.6,1.39-1.23,1.56
			c-0.61,0.16-1.23,0.26-1.89,0.1c-0.94-0.23-0.95-0.19-0.98-1.53c0.27,0.32,0.46,0.61,0.71,0.82c0.59,0.5,1.63,0.46,2.23-0.05
			c0.64-0.54,0.59-1.34-0.15-1.7c-0.47-0.23-1.02-0.32-1.53-0.46c-1.02-0.28-1.37-0.67-1.36-1.5c0.02-0.81,0.42-1.15,1.41-1.47
			c0.66-0.21,1.26-0.13,1.87,0.07C30.5,78.5,30.59,78.92,30.39,79.62z"/>
		<path style="fill:#FFFFFF;" d="M85.08,82.56c0.8,1.14,1.16,1.33,2.11,1.19c0.47-0.07,0.8-0.32,1.03-0.69
			c0.38-0.61,0.11-1.31-0.59-1.53c-0.61-0.19-1.27-0.27-1.85-0.52c-1.12-0.49-1.25-1.47-0.34-2.29c0.71-0.65,2.2-0.83,3-0.37
			c0.16,0.09,0.16,0.09,0.13,1.01c-0.96-0.93-2-1.05-2.76-0.33c-0.39,0.38-0.37,0.72,0.01,1.1c0.49,0.5,1.17,0.5,1.77,0.68
			c1.13,0.34,1.43,0.64,1.43,1.6c0,1.04-0.35,1.39-1.52,1.7c-0.54,0.14-1.03,0.14-1.55-0.01C85.06,83.88,85.01,83.83,85.08,82.56z"
			/>
		<path style="fill:#FFFFFF;" d="M36.21,76.85c0.56-1.83,1.56-3.48,1.95-5.35c0.07-0.33,0.61-0.46,0.87-0.25
			c0.23,0.18,0.24,0.46,0.34,0.71c0.67,1.63,1.34,3.25,2.05,4.94c-0.61,0.07-1.09,0.36-1.05-0.74c0.03-1.03-0.6-1.42-1.51-1.44
			c-1.29-0.02-1.68,0.35-1.79,1.67C37.02,76.91,37.02,76.91,36.21,76.85z M38.58,72.04c-0.22,0.58-0.42,0.99-0.54,1.42
			c-0.11,0.37,0.09,0.61,0.47,0.62c0.3,0.01,0.63,0.1,0.91-0.15C39.31,73.34,39.19,72.73,38.58,72.04z"/>
		<path style="fill:#FFFFFF;" d="M51.34,78.4c-0.18,1.21-0.1,2.43-0.09,3.65c0.01,0.72,0.21,1.42,1,1.66
			c0.99,0.31,1.82-0.3,1.85-1.39c0.04-1.18,0.04-2.37-0.08-3.54c-0.06-0.56,0.19-0.5,0.5-0.5c0.33,0,0.39,0.11,0.36,0.49
			c-0.09,1.12-0.07,2.25-0.1,3.38c-0.02,0.85-0.21,1.61-1.13,1.92c-1.09,0.37-2.11,0.06-2.73-0.75c-0.24-0.32-0.32-0.66-0.34-1.05
			c-0.06-1.23,0.07-2.46-0.09-3.7C50.44,78.15,51,78.25,51.34,78.4z"/>
		<path style="fill:#FFFFFF;" d="M67.53,84.08c0.21-1.08,0.14-2.04,0.13-3c-0.01-0.9,0.14-1.8-0.21-2.81c1.13,0,2.15-0.02,3.16,0.01
			c0.64,0.02,0.64,0.06,0.94,1.27c-0.76-0.72-1.47-1.03-2.35-0.95c-0.59,0.06-0.92,0.21-0.88,0.84c0.01,0.21,0.01,0.43,0,0.64
			c-0.03,0.55,0.24,0.74,0.77,0.77c0.45,0.02,0.81-0.21,1.24-0.26c0.13,0.34,0.21,0.67,0.1,1.07c-0.14-0.07-0.26-0.15-0.39-0.21
			c-1.35-0.59-1.74-0.35-1.72,1.09c0.01,1.17,0.01,1.18,1.15,1.19c0.58,0,1.19,0.13,1.69-0.34c0.1-0.09,0.28-0.24,0.37,0
			c0.07,0.2,0.07,0.44-0.16,0.56c-0.13,0.07-0.3,0.11-0.45,0.12C69.8,84.09,68.68,84.08,67.53,84.08z"/>
		<path style="fill:#FFFFFF;" d="M65.68,76.27c0.06,0.33-0.17,0.52-0.41,0.58c-2.43,0.63-4.43-0.58-4.07-3.42
			c0.24-1.94,2.13-3.01,3.9-2.31c0.56,0.22,0.56,0.22,0.5,1.2c-0.36-0.06-0.46-0.43-0.73-0.59c-0.85-0.52-1.98-0.28-2.55,0.53
			c-0.6,0.85-0.62,2.33-0.05,3.2c0.54,0.82,1.63,1.14,2.85,0.87C65.29,76.28,65.47,76.04,65.68,76.27z"/>
		<path style="fill:#FFFFFF;" d="M35.58,72.4c-0.56-0.53-1.08-1.03-1.92-0.93c-0.58,0.07-1.01,0.3-1.35,0.75
			c-0.62,0.83-0.67,2.3-0.11,3.19c0.53,0.84,1.62,1.2,2.82,0.93c0.19-0.04,0.36-0.24,0.58-0.1c0.16,0.25-0.01,0.44-0.18,0.51
			c-1.16,0.45-2.33,0.47-3.31-0.38c-0.97-0.83-1.19-1.97-0.92-3.2c0.27-1.24,1.17-1.87,2.27-2.25c0.51-0.18,1.04,0.03,1.56,0.17
			C35.74,71.28,35.8,71.7,35.58,72.4z"/>
		<path style="fill:#FFFFFF;" d="M93.11,76.88c-0.69,0.1-1.19,0.19-1.17-0.67c0.02-1.4,0.02-2.79,0-4.19
			c-0.01-0.58,0.13-0.92,0.79-0.89c0.7,0.03,1.4,0,2.09,0.01c0.72,0.01,0.71,0.48,0.56,1.19c-0.31-0.38-0.38-0.95-0.96-0.85
			c-0.42,0.08-0.86,0.01-1.28,0.09c-0.21,0.04-0.28,0.3-0.28,0.53c0.01,0.48-0.17,1.01,0.12,1.41c0.3,0.41,0.77,0.22,1.19,0.11
			c0.2-0.06,0.31,0.05,0.31,0.23c0,0.2,0.01,0.46-0.33,0.36c-0.05-0.01-0.1-0.04-0.15-0.05c-1.11-0.04-1.12-0.04-1.14,0.96
			C92.85,75.71,92.77,76.29,93.11,76.88z"/>
		<path style="fill:#FFFFFF;" d="M42.4,79.79c-0.44-0.53-0.7-1.15-1.44-1.18c-0.96-0.04-2.19,0.91-2.32,1.88
			c-0.15,1.07,0.07,2.05,0.97,2.75c0.85,0.66,1.77,0.69,2.71,0.15c0.09-0.05,0.2-0.06,0.31-0.1c0.28,0.44-0.1,0.6-0.36,0.7
			c-2.55,0.96-4.73-0.85-4.3-3.54c0.26-1.6,2.07-2.66,3.65-2.22C42.48,78.47,42.6,78.95,42.4,79.79z"/>
		<path style="fill:#FFFFFF;" d="M32.81,78.74c-0.95-0.11-1.18,0.45-1.47,0.95c-0.18-1.39-0.18-1.4,1.03-1.42
			c0.59-0.01,1.18-0.01,1.77,0c1.21,0.02,1.21,0.02,1.18,1.4c-0.39-0.12-0.43-0.55-0.7-0.76c-0.56-0.43-1.07-0.25-1.09,0.48
			c-0.04,1.49-0.13,2.99,0.07,4.49c-0.83,0.21-0.8,0.21-0.77-0.58C32.86,81.77,32.86,80.24,32.81,78.74z"/>
		<path style="fill:#FFFFFF;" d="M36.98,81.29c0,0.74,0,1.49,0,2.23c0,0.3-0.11,0.52-0.44,0.53c-0.32,0.01-0.47-0.19-0.47-0.5
			c0-1.17-0.01-2.34-0.01-3.51c0-0.43,0-0.85,0.01-1.28c0.01-0.32,0.18-0.48,0.51-0.45c0.24,0.02,0.38,0.17,0.38,0.41
			C36.97,79.59,36.97,80.44,36.98,81.29L36.98,81.29z"/>
		<path style="fill:#FFFFFF;" d="M67.81,76.95c-0.57-0.02-1.08,0.24-0.91-0.76c0.26-1.51,0.18-3.07,0.02-4.6
			c-0.03-0.25-0.01-0.41,0.28-0.41c0.24,0,0.43,0.11,0.45,0.35c0.03,0.42,0.02,0.85,0.03,1.27C67.72,74.12,67.58,75.45,67.81,76.95z
			"/>
		<path style="fill:#FFFFFF;" d="M29.18,76.85c0.19-1.41,0.07-2.83,0.1-4.25c0.01-0.37-0.01-0.75,0.04-1.11
			c0.03-0.23,0.23-0.34,0.47-0.31c0.31,0.03,0.25,0.22,0.23,0.45c-0.13,1.53-0.16,3.07,0.01,4.61
			C30.1,76.89,30.12,76.89,29.18,76.85z"/>
	</g>
</g>
</svg>
