<?xml version="1.0" encoding="utf-8"?>
<!-- Generator: Adobe Illustrator 23.0.2, SVG Export Plug-In . SVG Version: 6.00 Build 0)  -->
<svg version="1.1" id="Layer_1" xmlns="http://www.w3.org/2000/svg" xmlns:xlink="http://www.w3.org/1999/xlink" x="0px" y="0px"
	 width="100px" height="100px" viewBox="0 0 100 100" style="enable-background:new 0 0 100 100;" xml:space="preserve">
<g>
	<path style="fill:#FFFFFF;" d="M37.78,50.29c0-5.14,0-10.15,0-15.14c0.3-0.35,0.69-0.26,1.04-0.25c1.98,0.07,3.95-0.13,5.93,0.28
		c2.87,0.59,4.96,2.07,5.6,4.96c0.55,2.5,0.67,5.04-0.98,7.35c-1,1.39-2.45,2.01-3.91,2.44C42.99,50.65,40.41,50.3,37.78,50.29z
		 M40.9,47.31c3.43,0.53,4.21,0.07,5.75-2.13c0.82-1.18,0.85-4.11-0.38-5.65c-1.11-1.39-3.32-2.28-5.37-1.54
		C40.9,41.06,40.9,44.14,40.9,47.31z"/>
	<path style="fill:#FFFFFF;" d="M60.6,35.4c0.18,0.98-0.02,1.77-0.47,2.59c-0.57-0.14-1.17-0.3-1.76-0.45
		c-0.95-0.24-1.87-0.22-2.7,0.36c-0.93,0.65-0.95,1.86,0,2.49c0.51,0.34,1.12,0.56,1.69,0.8c1.22,0.49,2.32,1.1,3.32,2.01
		c1.17,1.08,1.12,4.32-0.02,5.47c-1.86,1.88-4.06,2.21-6.45,1.83c-0.72-0.12-1.61,0.04-2.28-0.75c-0.18-0.43-0.08-1.02-0.06-1.58
		c0.05-0.88,0.39-1.14,1.22-0.83C54.04,47.7,55,47.87,56,47.8c0.26-0.02,0.53-0.02,0.77-0.11c0.58-0.24,1.21-0.5,1.34-1.2
		c0.14-0.74-0.26-1.23-0.86-1.69c-0.73-0.56-1.59-0.77-2.41-1.08c-2.28-0.87-3.47-2.64-3.31-4.73c0.07-1,0.49-1.82,1.14-2.51
		c1.15-1.21,2.54-1.94,4.29-1.9C58.23,34.59,59.46,34.62,60.6,35.4z"/>
	<path style="fill:#FFFFFF;" d="M21.83,49.78c0.15,0.46,0.07,0.63-0.13,0.8c-2.02-0.41-4.08-0.38-6.06,0
		c-0.27-0.22-0.27-0.42-0.21-0.64c0.32-0.47,0.9-0.11,1.45-0.51c0.15-1.68-1.05-3.07-1.31-4.73c-1.74,0-3.36,0-5.12,0
		c-0.59,1.53-1.63,2.93-1.72,4.6c0.43,0.56,1.01,0.22,1.29,0.43c0.31,0.24,0.31,0.47,0.21,0.65c-0.15,0.26-0.42,0.25-0.69,0.17
		c-1.28-0.35-2.56-0.36-3.85,0.01c-0.43,0.12-0.71-0.03-0.7-0.5c0.08-0.12,0.13-0.26,0.2-0.27c1.32-0.16,2.11-0.88,2.67-2.1
		c1.8-3.99,3.73-7.93,5.37-11.99c0.11-0.28,0.22-0.58,0.49-0.73c0.64,0.09,0.74,0.62,0.9,1.03c0.74,1.94,1.43,3.91,2.17,5.86
		c0.74,1.95,1.54,3.87,2.27,5.82C19.56,48.97,20.45,49.71,21.83,49.78z M10.83,43.67c1.57,0.01,2.85,0.19,4.2-0.13
		c-0.6-1.63-1.16-3.17-1.78-4.87C12.2,40.23,11.77,41.9,10.83,43.67z"/>
	<path style="fill:#FFFFFF;" d="M34.77,64.04c-0.62,0.16-1.08,0.16-1.73,0c-0.14-4.86-0.04-9.76-0.06-14.66
		c-0.02-4.86,0-9.73,0-14.54c0.62-0.37,1.13-0.25,1.62-0.18c0.06,0.06,0.1,0.09,0.13,0.13c0.03,0.04,0.08,0.08,0.08,0.12
		c0.02,9.49,0.04,18.98,0.05,28.46C34.86,63.57,34.81,63.77,34.77,64.04z"/>
	<path style="fill:#FFFFFF;" d="M29.98,38.26c-0.53,0.03-0.64-0.3-0.78-0.66c-0.64-1.61-2.2-2.32-4.31-1.3
		c-0.43,0.21-0.65,0.61-0.73,1.13c-0.2,1.36,0.31,2.34,1.43,3.05c0.88,0.56,1.8,1.06,2.65,1.65c1.02,0.72,1.93,1.52,2.26,2.87
		c0.33,1.35-0.11,2.46-0.73,3.53c-0.82,1.42-3.15,2.24-4.78,1.9c-1.19-0.25-2.3-0.61-3.26-1.5c-0.17-0.89-0.06-1.83-0.06-2.77
		c0-0.33,0.04-0.33,0.8-0.46c0.22,0.62,0.16,1.31,0.49,1.93c0.89,1.69,3.2,2.35,4.83,1.35c1.64-1,1.46-3.11-0.14-4.29
		c-0.96-0.71-2.06-1.22-3.06-1.89c-1.09-0.73-2.07-1.53-2.34-2.97c-0.31-1.63,0.45-2.8,1.45-3.89c0.27-0.3,0.68-0.47,1.03-0.7
		c1.55-0.99,3.09-0.48,4.62,0.07c0.44,0.16,0.58,0.62,0.69,1C30.21,36.96,30.27,37.63,29.98,38.26z"/>
	<path style="fill:#FFFFFF;" d="M58.97,57.76c-0.93,0.17-1.77,0.69-2.48-0.12c-1.04,0.6-1.6,0.55-2.3-0.1
		c-0.5-0.48-0.61-1.15-0.3-1.86c0.3-0.69,0.93-1.02,1.79-0.95c0.48,0.04,0.64,0.28,0.47,0.73c-0.36,0.4-0.94,0.03-1.3,0.37
		c-0.12,1.23-0.12,1.23,1.18,1.36c0.44-0.66,0.89-1.4,2.07-1.2c-0.51-0.51-1.06-0.14-1.44-0.56c0.1-0.75,0.68-0.74,1.24-0.7
		c0.65,0.05,1.08,0.44,1.16,1.06C59.15,56.41,59.18,57.04,58.97,57.76z M58.05,56.92c-0.05-0.27-0.24-0.28-0.45-0.26
		c-0.16,0.02-0.3,0.11-0.28,0.28c0.03,0.26,0.24,0.28,0.45,0.26C57.93,57.18,58.04,57.1,58.05,56.92z"/>
	<path style="fill:#FFFFFF;" d="M94.77,60.79c0.27,0.35,0.31,0.75,0.08,1.03c-0.61,0.75-0.82,1.66-1.15,2.53
		c-0.35,0.94-0.64,1.07-1.76,0.87c-0.13-0.64,0.59-0.64,0.81-1.12c-0.03-0.82-0.29-1.63-0.81-2.42c-1.74,0.12-0.64,1.7-1.23,2.36
		c-0.36,0.16-0.69,0.12-0.72-0.28c-0.06-0.92-0.18-1.86,0.05-2.6c0.38-0.53,0.68-0.16,0.98-0.21c1.52-0.28,1.68-0.18,2.06,1.22
		c0.05,0.18-0.02,0.4,0.17,0.54C93.88,62.17,93.56,60.87,94.77,60.79z"/>
	<path style="fill:#FFFFFF;" d="M70.39,56.86c-0.35,0.69-0.82,1.07-1.47,1.26c-0.93-0.14-1.64-0.5-1.65-1.64
		c-0.01-0.85,0.25-1.48,0.86-1.68c1.1-0.36,1.76,0.26,2.21,1.21c1.41-1.61,2.12-1.75,2.58-0.49c-0.68-0.02-1.42,0.02-1.5,0.85
		c-0.1,1.03,0.94,0.73,1.47,1.03c-0.18,0.98-0.74,0.6-1.29,0.51C71.02,57.81,70.8,57.31,70.39,56.86z M68.67,55.44
		c-0.81,0.89-0.89,1.22-0.46,1.59c0.33,0.28,0.83,0.23,1.09-0.12C69.64,56.44,69.47,56,68.67,55.44z"/>
	<path style="fill:#FFFFFF;" d="M77.66,55.67c-0.15-0.77,0.48-1.07,0.9-1.49c0.4,0.03,0.47,0.56,0.9,0.54
		c0.36-0.01,0.74-0.06,1.24,0.39c0.23,0.24,0.09,0.94,0.59,1.31c0.39-0.53,0.28-1.45,1.3-1.69c-0.12,1.51-0.81,2.73-1.32,3.99
		c-0.22,0.55-0.81,0.54-1.32,0.21c0.04-0.54,0.71-0.5,0.8-1.09c-0.24-0.7-0.53-1.52-0.78-2.25c-0.43-0.18-0.67,0.02-0.84,0.18
		c-0.36,0.33-0.16,0.78-0.17,1.09c0.16,0.48,0.77,0.25,0.84,0.78c-0.47,0.85-0.95,0.35-1.52-0.06c0-0.44,0-0.91,0-1.38
		C78.27,55.81,78.02,55.68,77.66,55.67L77.66,55.67z"/>
	<path style="fill:#FFFFFF;" d="M50.4,61.74c-0.53,0.01-0.69,0.32-0.72,0.71c-0.04,0.42-0.01,0.84-0.05,1.25
		c-0.04,0.42-0.34,0.47-0.72,0.37c-0.51-0.68,0.11-1.63-0.48-2.41c-0.8,0.67,0.19,1.98-1.07,2.49c-0.47-1.07-0.14-2.14-0.22-3.36
		c0.8,0.31,1.6-0.34,2.29,0.38c0.43,0.01,0.6-0.63,1.13-0.43c1.45,0.59,0.9,1.88,0.94,2.95c0.02,0.42-0.32,0.48-0.72,0.37
		C50.3,63.38,50.89,62.44,50.4,61.74z"/>
	<path style="fill:#FFFFFF;" d="M67.59,64.16c-0.78,0.08-1.53-0.03-1.8-0.86c-0.24-0.75-0.22-1.55,0.52-2.12
		c0.16-0.12,0.31-0.27,0.39-0.34c0.41-0.21,0.68-0.04,0.98,0.04c0.28,0.07,0.59,0.02,1,0.02c0.27,1.55,0.42,3.05-0.68,4.46
		c-0.58,0.09-1.19,0.1-1.78-0.01c-0.27-0.44-0.25-0.73,0.25-0.86C66.85,64.4,67.33,64.65,67.59,64.16c0.04-0.02,0.09-0.03,0.13-0.06
		c0.02-0.02,0.02-0.07,0.03-0.1C67.7,64.06,67.65,64.11,67.59,64.16z M66.82,63.14c0.71,0.1,1.1-0.17,1.03-0.81
		c-0.06-0.53-0.44-0.77-1.05-0.57C66.63,62.17,66.57,62.59,66.82,63.14z"/>
	<path style="fill:#FFFFFF;" d="M83.33,61.65c0.37-0.28,0.74-0.57,1.1-0.85c0.32-0.16,0.61-0.04,0.89,0.12
		c0.3,0.17,0.6-0.22,1.06,0.18c0.02,1.35,0.59,2.9-0.8,4.29c-0.53,0.08-1.14,0.09-1.73-0.02c-0.29-0.45-0.24-0.74,0.25-0.85
		c0.44-0.1,0.93,0.1,1.34-0.21c-0.06-0.13-0.11-0.28-0.14-0.28c-1.41,0.16-1.81-0.12-1.98-1.42C83.29,62.28,83.33,61.96,83.33,61.65
		L83.33,61.65z M84.44,61.71c-0.21,0.54-0.26,0.97,0.01,1.39c0.56,0.21,0.94-0.02,1.02-0.55C85.56,61.92,85.18,61.64,84.44,61.71z"
		/>
	<path style="fill:#FFFFFF;" d="M37.84,59.87c1.37-0.36,2.38,0.1,3.08,1.12c0.48,0.69,0.34,1.5-0.08,2.21
		c-0.69,1.18-1.82,0.98-2.89,0.9C37.63,63.01,37.6,61.65,37.84,59.87z M38.85,60.8c-0.29,0.4-0.2,0.78-0.19,1.13
		c0.01,0.4-0.13,0.84,0.2,1.18c1.4,0.02,1.41,0.01,1.28-1.92C39.77,61.02,39.45,60.62,38.85,60.8z"/>
	<path style="fill:#FFFFFF;" d="M43.26,55.72c-0.44,0.7,0.03,1.46-0.41,2.04c-0.89-0.17-0.89-0.17-0.66-2.82
		c1.09-0.54,2.28,0.46,3.27-0.24c0.59,0.27,1.02,0.59,1.03,1.18c0.01,0.61,0.19,1.25-0.15,1.83c-0.12,0.2-0.36,0.15-0.57,0.06
		c-0.3-0.29-0.17-0.67-0.21-1.02c-0.03-0.3,0.08-0.63-0.14-0.9C44.94,56,44.94,56,44.34,57.86c-0.58-0.26-0.79-0.63-0.52-1.22
		C44.06,56.12,43.83,55.87,43.26,55.72z"/>
	<path style="fill:#FFFFFF;" d="M39.57,53.82c0.51-0.08,0.81,0.17,0.93,0.62c0.28,1.1,0.78,2.12,1.27,3.08
		c-0.29,0.43-0.57,0.39-0.83,0.15c-1.14-1.04-1.16-1.04-2.44,0.05c-0.23,0.2-0.47,0.16-0.77-0.12c0.39-0.9,0.78-1.84,1.19-2.78
		C39.08,54.46,39.19,54.05,39.57,53.82z M39.69,55.12c-0.07,0.39-0.43,0.59-0.29,0.99c0.28,0.19,0.54,0.29,0.74-0.1
		C40.13,55.69,39.95,55.45,39.69,55.12z"/>
	<path style="fill:#FFFFFF;" d="M54.69,61.65c0,0.77,0,1.54,0,2.33c-0.7,0.29-1.33,0.18-1.94,0.18c-0.47,0-0.79-0.23-0.87-0.72
		c-0.07-0.44,0.02-0.84,0.44-1.07c0.39-0.22,0.8-0.42,1.32-0.49c-0.5-0.47-0.97,0.01-1.4-0.14c0.27-0.86,0.72-1.14,1.38-0.94
		C54.1,60.94,54.34,61.36,54.69,61.65L54.69,61.65z M53.63,62.83c-0.29-0.01-0.56,0.01-0.7,0.32
		C53.43,63.66,53.54,63.21,53.63,62.83z"/>
	<path style="fill:#FFFFFF;" d="M75.82,60.98c0.35,0.6,1.08,0.56,1.39,1.07c0.25,1.92-0.32,2.39-2.29,1.89
		c0.15-0.61,0.15-0.61,1.38-0.95c0.05-0.64-0.57-0.66-0.89-0.94c-0.72-0.64-0.79-1.27-0.2-1.88c0.63-0.65,1.33-0.58,2.06,0.23
		C76.96,60.97,76.26,60.48,75.82,60.98z"/>
	<path style="fill:#FFFFFF;" d="M89.46,62.83c-0.59,0.07-1.08,0.12-1.58,0.17c0.28,0.91,0.94,0.09,1.32,0.37
		c-0.14,0.76-0.42,0.92-1.24,0.8c-0.9-0.14-1.35-0.91-1.18-2.01c0.14-0.86,0.86-1.51,1.56-1.41C89.21,60.86,89.57,61.5,89.46,62.83z
		 M87.98,61.71c-0.01,0.06-0.02,0.11-0.03,0.17c0.14,0.02,0.29,0.06,0.43,0.04c0.15-0.03,0.17-0.16,0.03-0.2
		C88.27,61.68,88.12,61.71,87.98,61.71z"/>
	<path style="fill:#FFFFFF;" d="M43.03,60.74c0.92,0.28,1.44,0.78,1.52,1.65c-0.43,0.87-1.33,0.29-1.94,0.63
		c0.37,0.77,1.06-0.03,1.62,0.39c-0.02,0.62-0.45,0.75-1,0.75c-0.7,0-1.58-0.67-1.73-1.32C41.33,62.1,41.87,61.34,43.03,60.74z
		 M43.21,61.72c-0.23,0-0.44-0.23-0.56,0.16C42.85,61.94,43.03,62.01,43.21,61.72z"/>
	<path style="fill:#FFFFFF;" d="M59.01,60.69c1.27,0.93,1.63,1.68,1.29,2.6c-0.22,0.61-0.92,0.98-1.65,0.87
		c-0.76-0.11-1.31-0.66-1.43-1.42C57.07,61.75,57.41,61.35,59.01,60.69z M58.88,63.52c0.69-0.53,0.59-1.14,0.38-1.75
		c-0.55-0.19-0.91,0.01-1.04,0.45C58.07,62.72,58.1,63.24,58.88,63.52z"/>
	<path style="fill:#FFFFFF;" d="M49.51,56.48c-0.57,0.27-1.12-0.02-1.61,0.31c0.44,0.73,1.11,0.3,1.65,0.36
		c0.16,0.29,0.08,0.53-0.16,0.68c-0.31,0.18-0.61,0.42-1.01,0.32c-0.76-0.2-1.26-0.68-1.5-1.43c-0.2-0.64,0.1-1.08,0.54-1.51
		c0.41-0.4,0.84-0.61,1.39-0.41C49.39,55,49.58,55.49,49.51,56.48z M48.84,55.84c-0.29-0.27-0.56-0.19-0.92-0.02
		C48.28,56.02,48.56,56.03,48.84,55.84z"/>
	<path style="fill:#FFFFFF;" d="M66.86,57.12c-0.23,0.49-0.79,0.76-1.42,1.01c-0.43-0.16-1.02-0.18-0.96-1
		c0.45-0.08,1.05,0.36,1.37-0.3c0.03-0.4-0.34-0.43-0.58-0.59c-0.21-0.15-0.42-0.31-0.58-0.51c-0.38-0.48-0.34-1.39,0.05-1.73
		c0.41-0.35,1.46-0.32,1.84,0.09c0.07,0.08,0.01,0.28,0.01,0.41c-0.42,0.4-1.11-0.48-1.37,0.38c0.25,0.68,1.23,0.52,1.49,1.23
		C66.79,56.35,66.99,56.55,66.86,57.12z"/>
	<path style="fill:#FFFFFF;" d="M77.66,55.67c-0.02,0.25-0.04,0.51-0.06,0.72c-0.63,0.47-1.38-0.01-1.99,0.39
		c0.41,0.77,1.09,0.29,1.68,0.37c0.15,0.75-0.48,0.94-0.9,0.96c-1.02,0.05-1.58-0.61-1.84-1.52c-0.06-0.3,0.07-0.53,0.2-0.76
		c0.76-1.35,1.3-1.44,2.52-0.41C77.39,55.52,77.53,55.59,77.66,55.67C77.66,55.67,77.66,55.67,77.66,55.67z M76.55,55.85
		c-0.5-0.46-0.5-0.46-0.84,0.06C76,56.01,76.28,56.03,76.55,55.85z"/>
	<path style="fill:#FFFFFF;" d="M61.4,55.74c-1.59-0.07-0.73,1.38-1.19,1.97c-0.31,0.19-0.56,0.01-0.64-0.21
		c-0.28-0.85-0.27-1.71-0.02-2.36c0.43-0.58,0.8-0.22,1.14-0.26c1.24-0.17,1.74,0.2,1.84,1.39c0.04,0.49,0.16,1.04-0.16,1.5
		c-0.47,0.19-0.7,0.02-0.76-0.44C61.55,56.81,61.75,56.27,61.4,55.74z"/>
	<path style="fill:#FFFFFF;" d="M64.13,60.7c1.35,1.1,1.53,1.56,1.05,2.61c-0.35,0.78-0.78,1-1.61,0.83
		c-0.76-0.15-1.25-0.71-1.33-1.5C62.14,61.66,62.51,61.27,64.13,60.7z M63.85,63.57c0.52-0.47,0.94-0.85,0.61-1.51
		c-0.29-0.58-0.72-0.46-1.16-0.22C63.22,62.85,63.22,62.85,63.85,63.57z"/>
	<path style="fill:#FFFFFF;" d="M86.47,55.67c0.24-0.19,0.48-0.38,0.72-0.57c0.74-0.56,1.53-0.53,2.07,0.07
		c0.51,0.56,0.5,1.72-0.02,2.27c-0.1,0.11-0.22,0.23-0.35,0.3c-0.27,0.15-0.55,0.28-0.79,0.4C86.76,57.81,86.41,56.87,86.47,55.67
		L86.47,55.67z M88.23,55.44c-0.8,0.55-0.97,0.99-0.62,1.47c0.26,0.35,0.76,0.4,1.09,0.11C89.12,56.66,89.03,56.33,88.23,55.44z"/>
	<path style="fill:#FFFFFF;" d="M77.98,60.66c1.07,0.85,0.24,1.95,0.96,2.7c0.65,0.04,0.93-0.29,0.94-1
		c0.01-0.53-0.23-1.18,0.52-1.57c0.77,0.97,0.28,2.07,0.41,3.16c-0.71,0.28-1.42,0.1-2.1,0.16c-0.47,0.04-0.71-0.38-0.72-0.85
		C77.97,62.5,77.98,61.72,77.98,60.66z"/>
	<path style="fill:#FFFFFF;" d="M86.47,55.67c-0.35,0.01-0.61,0.13-0.62,0.54c-0.01,0.42,0.01,0.84-0.05,1.25
		c-0.06,0.39-0.35,0.47-0.71,0.31c-0.33-0.4-0.25-0.91-0.17-1.33c0.11-0.62-0.6-0.71-0.63-1.32c0.68-0.4,0.5-2.05,2.04-1.52
		c0.14,0.59-0.48,0.51-0.61,0.9c-0.02,0.41,0.55,0.14,0.63,0.43C86.42,55.16,86.44,55.42,86.47,55.67L86.47,55.67z"/>
	<path style="fill:#FFFFFF;" d="M54.69,61.65c0.01-0.8,0.67-1.09,1.19-1.57c0.42,0.35,0.8,0.67,1.21,1.01
		c-0.09,0.57-0.91,0.62-0.86,1.35c0.04,0.66,0.44,0.96,0.86,1.27c-0.36,0.52-0.73,0.54-1.13,0.28c-0.85-0.57-0.68-1.39-0.51-2.19
		C55.21,61.58,54.94,61.68,54.69,61.65L54.69,61.65z"/>
	<path style="fill:#FFFFFF;" d="M71.44,62.61c0.28,0.9,0.97,0.9,1.67,0.68c0.14,0.54-0.13,0.74-0.43,0.81
		c-0.45,0.11-0.91,0.13-1.35-0.15c-0.84-0.54-0.73-2.03-0.21-2.7c0.47-0.61,1.11-0.59,1.76,0.04c-0.14,0.48-0.62,0.25-0.9,0.42
		C71.64,61.91,71.49,62.25,71.44,62.61z"/>
	<path style="fill:#FFFFFF;" d="M61.12,64.05c-0.25-1.98-0.21-3.49,0.13-4.53c0.53,0.07,0.67,0.43,0.67,0.88
		c0.01,1.05,0.01,2.1,0,3.14C61.92,64.02,61.68,64.22,61.12,64.05z"/>
	<path style="fill:#FFFFFF;" d="M63.01,49.27c-0.28,0.26,0.04,0.76-0.5,0.99c-0.44-0.45-0.22-1.12-0.54-1.6
		c0.58-0.35,1.09-0.22,1.55-0.17c0.33,0.15,0.25,0.47,0.41,0.68c0.34-0.05,0.28-0.54,0.7-0.57c0.29,0.44,0.67,0.87,0.24,1.46
		c-0.5,0.21-1,0.05-1.49,0.1C62.99,49.97,63.38,49.46,63.01,49.27z"/>
	<path style="fill:#FFFFFF;" d="M83.33,61.65c-1.18,0.2-1.18,0.2-1.25,1.13c-0.03,0.36,0.01,0.73-0.07,1.08
		c-0.07,0.29-0.37,0.31-0.72,0.2c-0.25-1.01-0.24-2.05,0.03-3.14c0.54-0.07,1.04,0.06,1.46-0.16
		C83.19,60.95,83.34,61.25,83.33,61.65L83.33,61.65z"/>
	<path style="fill:#FFFFFF;" d="M45.73,64.02c-0.48,0.23-0.77,0.07-0.78-0.39c-0.03-0.88-0.01-1.76-0.01-2.67
		c0.54-0.29,1.12,0.07,1.53-0.31c0.79,0.99-0.3,0.9-0.51,1.23C45.74,62.6,46.06,63.36,45.73,64.02z"/>
	<path style="fill:#FFFFFF;" d="M50.31,54.7c0.66,0.32,1.15,0,1.65,0.09c0.48,0.76-0.16,0.86-0.56,0.98
		c-0.35,0.66-0.01,1.32-0.3,1.92c-0.36,0.25-0.73,0.24-0.77-0.26C50.26,56.61,50.31,55.79,50.31,54.7z"/>
	<path style="fill:#FFFFFF;" d="M90.37,54.81c0.55,0.14,1.05-0.04,1.51-0.07c0.68,0.95-0.47,0.82-0.65,1.26
		c-0.03,0.54-0.06,1.1-0.09,1.63c-0.43,0.31-0.8,0.3-0.85-0.19C90.21,56.57,90.14,55.69,90.37,54.81z"/>
	<path style="fill:#FFFFFF;" d="M73.28,54.74c1.05,0.31,1.1,0.57,0.79,2.96c-0.38,0.24-0.74,0.2-0.77-0.3
		C73.23,56.58,73.28,55.75,73.28,54.74z"/>
	<path style="fill:#FFFFFF;" d="M53.3,57.75c-0.29,0.1-0.57,0.17-0.64-0.04c-0.31-0.95-0.24-1.92-0.04-2.84
		c0.29-0.11,0.58-0.17,0.64,0.04C53.57,55.85,53.5,56.82,53.3,57.75z"/>
	<path style="fill:#FFFFFF;" d="M69.61,64.05c-0.24-0.95-0.13-1.91-0.09-2.78c0.35-0.28,0.57-0.27,0.86,0.01
		c-0.06,0.68-0.3,1.41-0.02,2.17C70.48,63.77,70.15,64.12,69.61,64.05z"/>
	<path style="fill:#FFFFFF;" d="M74.17,53.91c-0.01,0.31-0.16,0.48-0.45,0.47c-0.29-0.01-0.45-0.19-0.42-0.49
		c0.02-0.22,0.15-0.36,0.38-0.38C73.97,53.48,74.13,53.62,74.17,53.91z"/>
	<path style="fill:#FFFFFF;" d="M53.39,53.86c0.02,0.34-0.14,0.52-0.43,0.52c-0.29,0.01-0.46-0.17-0.44-0.47
		c0.01-0.21,0.11-0.38,0.36-0.4C53.17,53.48,53.35,53.6,53.39,53.86z"/>
	<path style="fill:#FFFFFF;" d="M70.36,59.94c-0.06,0.5-0.27,0.68-0.64,0.67C69.53,59.88,69.53,59.88,70.36,59.94z"/>
</g>
</svg>
