<?xml version="1.0" encoding="utf-8"?>
<!-- Generator: Adobe Illustrator 23.0.2, SVG Export Plug-In . SVG Version: 6.00 Build 0)  -->
<svg version="1.1" id="Layer_1" xmlns="http://www.w3.org/2000/svg" xmlns:xlink="http://www.w3.org/1999/xlink" x="0px" y="0px"
	 width="100px" height="100px" viewBox="0 0 100 100" style="enable-background:new 0 0 100 100;" xml:space="preserve">
<g>
	<path style="fill:#FFFFFF;" d="M81.89,68.89c-1.84,0.38-3.39,0.16-4.93,0.2c-1.5,0.04-3,0.01-4.5,0.01c-1.56,0-3.11,0-4.67,0
		c-1.5,0-3,0-4.5,0c-1.56,0-3.11,0-4.67,0c-1.49,0-2.97,0-4.49,0c-0.23,1.4,0.8,2.52,0.43,3.84c-1.64,0.64-3.18,0.37-4.65-0.37
		c-0.76-0.38-1.5-0.85-2.09-1.5c-0.7-0.78-1.53-1.38-2.63-2.04c-8.76,0-17.73,0-26.99,0c1.86-3.54,3.86-6.73,5.69-10.01
		c1.82-3.25,3.68-6.48,5.54-9.71c1.89-3.27,3.79-6.53,5.64-9.7c-1.95-2.07-3.86-4.1-5.68-6.46c3.81-3.12,8.2-4.83,12.83-6.08
		c2.49-4.32,4.98-8.63,7.61-13.19c3.74,6.21,7.19,12.33,10.74,18.39c3.56,6.09,7.06,12.21,10.63,18.29
		C74.76,56.61,78.25,62.69,81.89,68.89z M56.08,55.39c-1.4,2.28-2.78,4.53-4.14,6.78c-0.24,0.4-0.33,0.83-0.38,1.31
		c-0.16,1.49,0.77,2.44,1.53,3.48c8.47,0,16.86,0,25.46,0c-9.53-16.42-18.98-32.69-28.58-49.24c-1.77,2.87-3.26,5.61-4.93,8.56
		c2.57-0.5,4.94-0.96,7.42-1.45c0.82,2.91,1.82,5.7,2.79,8.49c0.95,2.73,2.41,5.3,3.37,8.05c0.98,2.81,2.39,5.41,3.69,7.83
		c-0.23,0.84-0.93,0.81-1.2,1.26c0.17,1.48-0.68,2.87-0.22,4.28c-0.89,0.81-1.75,1.09-2.78,0.68C57.5,55.18,56.87,55.24,56.08,55.39
		z M47.2,53.61c-3.89-4.16-7.25-8.46-10.67-12.63c-4.94,8.6-9.91,17.25-14.92,25.95c4.26,0.26,18.73,0.16,19.98-0.13
		c-1.27-0.14-1.27-0.14-2-0.65C41.45,61.61,44.82,57.98,47.2,53.61z M43.97,59.85c0.29,0.17,0.34,0.22,0.39,0.22
		c0.17,0.02,0.35,0.04,0.52,0.02c1.76-0.2,2.98,0.55,3.79,2.09c0.24,0.45,0.55,0.87,0.88,1.27c0.37,0.45,0.43,1.2,1.21,1.26
		c-0.14-1.38-0.04-1.93,0.72-3.73c1.02-2.43,1.53-4.89,0.6-7.49c-0.29-0.82-0.22-0.84,0.13-1.81c1.9,2.82,4.77,3.15,7.69,3.24
		c0.7-0.95-0.37-1.68,0.22-2.41c-0.57-0.32-1.01-0.56-1.56-0.87c0.68-0.25,1.25-0.47,1.97-0.74c-0.17-0.94,0.43-1.63,1.05-2.26
		c-1.16-1.51-1.64-3.27-2.57-4.63c-1.55-0.72-2.36,1.36-3.85,0.74c1.12-0.76,2.19-1.49,3.25-2.21c0.11-0.57-0.1-0.91-0.69-1.07
		c-1.22,0.58-2.31,1.41-3.41,2.23c-1.63,1.22-3.31,2.27-5.44,2.27c-0.2,0-0.4,0.19-0.58,0.28c-0.31,0.77-0.2,1.51-0.13,2.19
		c1.04,1.18,0.75,1.32,3.35,2.34c-0.86,0.84-1.75-0.19-2.88,0.16C48.12,54.3,46.05,57.04,43.97,59.85z M53.87,72.44
		c0.18-0.88-0.2-1.29-0.97-1.24c-1.3,0.08-2.13-0.63-2.98-1.46c-0.86-0.84-1.24-1.93-1.76-2.94c-0.74-1.46-1.54-2.82-3.23-3.55
		c-0.46,0.02-1.08-0.19-1.58,0.13c-0.58,0.37-1.1-0.14-1.68-0.02c-0.39,0.74-0.86,1.44-1.06,2.42c1.86,0.16,3.36,0.97,4.77,1.96
		c1.09,0.77,1.9,1.84,2.88,2.72C49.84,71.86,51.57,72.89,53.87,72.44z M53.45,43.36c1.47-0.94,2.85-1.82,4.22-2.69
		c-0.24-0.76-0.27-1.53-0.97-2.03c-1.49,0.51-2.81,1.23-3.9,2.32C53,41.73,53.21,42.49,53.45,43.36z M46.94,48.01
		c-0.68,0.81-1.7,1.04-2.24,2.02c0.63,0.39,0.92,1.06,1.64,1.34C46.94,50.31,47.23,49.31,46.94,48.01z M46.85,43.06
		c0-0.08,0-0.16,0-0.24c-0.83,0-1.66-0.01-2.49,0.01c-0.16,0-0.41-0.1-0.48,0.23C44.89,43.06,45.87,43.06,46.85,43.06z M51.89,70.38
		c0.57-1.01-0.04-1.52-0.15-2.1C51.55,68.86,51.49,69.44,51.89,70.38z M50.03,66.73c-0.35,0.66-0.82,1.11,0,1.53
		C50.24,67.8,50.21,67.38,50.03,66.73z M48.58,43.03c0.02,0.52-0.34,1.06,0.2,1.76C48.73,44.07,48.9,43.54,48.58,43.03z"/>
	<path style="fill:#FFFFFF;" d="M25.62,83.98c0,0.23,0,0.46,0,0.58c-0.17,0.6-0.88-0.21-0.92,0.53c0.56,0.65,1.14,0,1.69,0
		c0.41,0.1,0.58,0.61,1.05,0.52c0.17-0.13,0.2-0.28,0.11-0.45c-0.25-0.52-1.12-0.51-0.99-1.61c0.1-0.26,0.5-0.6,1.16-0.6
		c1.82,0,3.65,0,5.45,0c0.46,0.35-0.12,0.78,0.2,1.19c0.1,0.12,0.3,0.19,0.54,0.13c0.61-0.29-0.04-0.71,0.11-1.05
		c0.31-0.46,0.7-0.18,1.06-0.21c0.46,0.86-0.02,1.79,0.45,2.71c0.85-0.78,0.17-1.8,0.65-2.66c2.24,0,4.54,0,6.99,0
		c-0.24,0.97-0.42,1.9-0.11,2.82c-0.46,0.34-0.89,0.12-1.35,0.15c0.1-0.79,0.25-1.46,0.06-2.17c-0.37-0.04-0.74-0.09-1.11-0.13
		c-0.37,0.76-0.1,1.49-0.08,2.2c-0.39,0.25-0.79,0.08-1.23,0.13c-0.08-0.77,0.3-1.5-0.05-2.21c-1.25-0.63-1.01,1.62-2.2,1
		c0.14,0.82,1.02,0.23,1.19,0.83c0.02,0.22-0.16,0.33-0.31,0.34c-1.26,0.02-2.52,0.01-3.76,0.01c-0.29-0.4,0.23-0.82-0.1-1.13
		c-0.2-0.24-0.43-0.18-0.65-0.13c-0.43,0.34-0.14,0.74-0.08,1.12c-0.42,0.33-0.86,0.11-1.33,0.17c0.05-0.78,0.23-1.45,0.05-2.13
		c-0.35-0.16-0.72-0.19-1.16-0.15c-0.25,0.7-0.18,1.42,0.04,2.11c-0.43,0.28-0.83,0.17-1.35,0.13c-0.06-0.73,0.41-1.54-0.14-2.3
		c-0.41,0.12-0.84,0.25-1.32,0.39c0.09,0.18,0.17,0.31,0.24,0.45c0.45,0.97,0.18,1.62-0.76,1.48c-1.87-0.28-3.73,0.35-5.61-0.06
		c0.06-0.57-0.03-1.1-0.48-1.52c-1.11,0.18-1.11,0.18-1.06,1.51c-0.44,0.16-0.87,0.18-1.38-0.09c1.12-1.23,1.21-2.97,2.28-4.35
		c1.3,1.08,0.98,2.9,1.98,4.06c0.53-0.99,0.53-0.99,0.25-2.48c0.72-0.25,1.43-0.2,2.1-0.06C26.03,83.48,26,83.77,25.62,83.98
		c-0.72-0.36-0.72-0.36-0.79,0.25C25.14,84.31,25.35,84.05,25.62,83.98z"/>
	<path style="fill:#FFFFFF;" d="M47.93,81.6c1,0,1.86,0,2.59,0c0.7,0.27,0.9,0.87,1.27,1.23c0.46,0.23,0.98-0.04,1.39,0.35
		c-0.01,0.68-0.55,1.39-0.01,2.09c0.46,0.28,0.88-0.31,1.3-0.02c0.6-0.68,0.64-1.66,1.39-2.2c0.89,0.59,0.75,1.68,1.3,2.41
		c-0.01,0,1.51,0.05,1.63,0.05c-0.32-0.66-1.2-0.79-1.3-1.57c0.22-0.52,0.59-1.01,1.24-0.96c1.88,0.15,3.76-0.21,5.71,0.05
		c-0.01,0.93-0.27,1.89,0.08,2.81c-0.38,0.47-0.84,0.12-1.41,0.29c0.17-0.8,0.26-1.46,0.15-2.16c-0.31-0.26-0.71-0.16-1.15-0.21
		c-0.31,0.7-0.2,1.42,0,2.13c-0.43,0.37-0.87,0.12-1.34,0.17c0.05-0.82,0.27-1.55-0.01-2.25c-0.53-0.12-0.91,0.22-1.34,0.28
		c-0.14,0.36,0.24,0.47,0.31,0.72c0.21,0.71-0.02,1.18-0.71,1.24c-0.86,0.07-1.72,0.02-2.37,0.02c-0.72-0.12-0.45-0.8-0.92-0.93
		c-0.58,0-0.58,0.41-0.56,0.89c-1.09,0-2.17,0-3.33,0c-0.16-0.81,0.42-1.77-0.32-2.57c-0.46,0.38-0.85,0.79-1.41,0.83
		c-0.34-0.31-0.16-0.53,0.02-0.76c0.14-0.18,0.32-0.33,0.29-0.64c-0.09-0.33-0.29-0.56-0.8-0.49c-0.27,1.16-0.18,2.34,0,3.55
		c-0.55,0.22-1.1,0.17-1.67,0.03C48.68,84.53,48.65,83.12,47.93,81.6z"/>
	<path style="fill:#FFFFFF;" d="M12.81,78.79c0.28,0.05,0.56,0.1,0.85,0.15c0.31-0.33,0.15-0.75,0.17-1.13
		c0.01-0.32-0.07-0.65-0.1-0.96c0.28-0.24,0.57-0.13,0.93-0.09c0.24,0.37,0.5,0.78,0.81,1.26c0.57-0.61,0.77-1.66,1.96-1.22
		c-0.03,0.79-0.27,1.63,0.06,2.46c-0.38,0.36-0.82,0.22-1.24,0.15c-0.33-0.35,0.31-0.77-0.18-1.14c-0.22,0.37-0.44,0.75-0.65,1.12
		c-0.72-0.07-0.6-0.83-1.03-1.09c-0.42,0.32,0.11,0.72-0.14,1.17c-0.85-0.3-1.62,0.58-2.59,0.15c-0.84-0.37-1.81-0.04-2.76-0.2
		c0.02-0.75,0.28-1.47-0.02-2.19c-0.72,0.66-0.69,1.69-1.32,2.48c-0.84-0.82-0.85-2-1.61-3.04c-0.01,1.11-0.34,2.01,0.49,2.7
		c-0.49,0.56-0.89,0-1.3,0.03C4.79,78.02,6.3,76.57,5,75.2c0.44-0.34,0.88-0.2,1.36-0.12c0.44,0.94,0.81,1.95,1.45,2.91
		C8.17,76.91,8.63,76,9.11,75.2c0.4-0.29,0.72-0.17,1.19-0.14c-0.06,0.73-0.34,1.36-0.26,2.04c0.08,0.65-0.09,1.33,0.23,2.22
		c0.73-0.86,0.29-1.66,0.59-2.4c0.41-0.27,0.94-0.47,1.51-0.5c0.51-0.02,0.66,0.35,0.44,1c-0.72-0.36-0.72-0.36-0.79,0.25
		c0.32,0.08,0.52-0.18,0.79-0.25C12.81,77.87,12.81,78.33,12.81,78.79c-0.3-0.02-0.54-0.51-0.9-0.12
		C12.26,79.07,12.26,79.07,12.81,78.79z"/>
	<path style="fill:#FFFFFF;" d="M84.44,79.14c-1.36,1.15-2.13,0.8-3.31-0.51c-0.34,0.66-0.93,0.99-1.63,1.18
		c-0.72-0.04-1.23-0.53-1.86-0.91c-0.62,0.57-1.2,1.29-2.23,0.76c-0.54-0.28-0.79-0.63-0.56-1.4c0.36,0.26,0.49,0.76,0.92,0.83
		c0.47,0.08,0.78-0.11,1.01-0.62c-0.4-0.91-1.74-1.06-2-2.15c0.61-1.42,0.61-1.42,2.53-1.21c0.06,0.13,0.16,0.28,0.18,0.43
		c0.03,0.16-0.01,0.34-0.02,0.52c-0.36,0.27-0.48-0.13-0.7-0.23c-0.27-0.12-0.53-0.22-0.89,0.06c0.05,1.03,1.19,1.03,1.74,1.85
		c0.37-0.83,1.02-1.13,1.67-1.37c1.17,0.41,1.17,0.41,1.84,1.18c1.12-1.25,1.92-1.68,3.3-0.5l0,0c-0.16,0.32-0.39,0.34-0.69,0.19
		c-0.42-0.21-0.84-0.29-1.33,0.1c0.01,0.54-0.25,1.15,0.14,1.62c0.75,0.41,1.21-0.12,1.77-0.43C84.38,78.82,84.41,78.98,84.44,79.14
		L84.44,79.14z M80.27,78.01c-0.34-0.4-0.35-1.09-1.1-0.87c-0.67,1.12-0.67,1.12,0.25,1.97C79.98,79.03,80.04,78.54,80.27,78.01z"/>
	<path style="fill:#FFFFFF;" d="M88.59,78.79c0.16,0.03,0.32,0.06,0.5,0.1c-0.02,0.51-0.41,0.66-0.81,0.93
		c-0.96-0.37-2.04-0.35-3.12-0.33c-0.3,0.01-0.57-0.05-0.72-0.35l0,0c0.47-0.88,0.47-1.2,0-2.08c0,0,0,0,0,0
		c0.12-0.11,0.24-0.29,0.37-0.31c0.33-0.05,0.68-0.01,1.11-0.01c0.09,0.77-0.39,1.57,0.2,2.38c0.76-0.62,0.13-1.55,0.53-2.19
		c1.03-0.84,2.27-0.24,3.4-0.45c0.37-0.07,0.83,0.03,1.29-0.03c0.96-0.13,1.91,0.01,2.28,1.12c0.58-0.1,0.47-1.1,1.39-0.71
		c-0.36,0.75-1.38,1.41-0.65,2.42c-0.47,0.31-0.91,0.26-1.48,0.08c0.56-0.9-0.18-1.44-0.63-2.08c-0.34,0.05-0.7-0.23-1.16,0.02
		c-0.11,0.63-0.11,1.3,0.1,1.99c-0.39,0.34-0.83,0.22-1.39,0.1c0.15-0.65,0.23-1.31,0.12-2.03c-0.46-0.27-0.79,0.21-1.13,0.14
		C88.51,77.99,88.63,78.4,88.59,78.79c-0.3-0.02-0.55-0.5-0.91-0.11C87.9,79.41,88.24,79.17,88.59,78.79z"/>
	<path style="fill:#FFFFFF;" d="M45.34,78.79c0.16,0.03,0.32,0.06,0.6,0.12c-0.34,0.57-0.69,1.05-1.34,0.85
		c-1.04-0.32-2.12-0.13-3.12-0.34c-0.25-0.28,0.17-0.59-0.02-0.72c-0.31-0.28-0.52-0.24-0.71-0.15c-0.36,0.24-0.01,0.55-0.13,0.82
		c-0.42,0.18-0.85,0.2-1.3-0.01c0.1-0.69,0.23-1.36,0.05-2.06c-0.37-0.04-0.74-0.09-1.11-0.13c-0.36,0.76-0.09,1.49-0.08,2.2
		c-0.39,0.21-0.78,0.14-1.24,0.05c-0.08-0.69,0.31-1.42-0.02-2.1c-0.25-0.18-0.57,0.24-0.78-0.11c0.46-0.92,0.46-0.92,4.44-0.38
		c0.23,0.23-0.2,0.55-0.01,0.67c0.31,0.28,0.52,0.24,0.7,0.16c0.37-0.24,0.02-0.55,0.16-0.83c0.4-0.18,0.83-0.19,1.3,0.03
		c-0.16,0.56-0.18,1.13-0.13,1.69c0.01,0.16,0.11,0.31,0.23,0.61c0.82-0.66,0.16-1.59,0.69-2.34c0.59,0.04,1.24-0.93,2.12,0.07
		C45.55,77.47,45.22,78.11,45.34,78.79c-0.3-0.02-0.54-0.51-0.9-0.12C44.78,79.07,44.78,79.07,45.34,78.79z"/>
	<path style="fill:#FFFFFF;" d="M61.6,77.06c0.37-0.57,0.91-0.32,1.49-0.31c-0.01,0.84-0.27,1.68,0.1,2.58
		c-0.59,0.16-1.17,0.32-1.76,0.48c-0.39,0.01-0.61-0.29-0.9-0.46c-1.5,0.05-2.99,0.69-4.59,0c0.05-0.75,0.28-1.59-0.08-2.46
		c0.47-0.18,0.94-0.35,1.31-0.49c0.57,0.01,0.82,0.34,1.08,0.61c0.27,0.99-0.47,1.38-1.14,1.78c0.61,0.69,1.12-0.06,1.72,0.15
		c0-0.68,0-1.3,0-1.89C59.83,76.25,60.71,76.64,61.6,77.06c0.15,0.57-0.57,0.84-0.52,1.41c0.13,0.17,0.26,0.36,0.41,0.52
		c0.04,0.04,0.19-0.03,0.39-0.07C61.87,78.3,62.23,77.64,61.6,77.06z"/>
	<path style="fill:#FFFFFF;" d="M66.54,77.18c-0.66,0.08-1.09-0.27-1.62,0.03c-0.35,0.5-0.2,1.1-0.11,1.81
		c2,0.28,2.39-1.58,3.43-2.51c0.84,0.64,0.52,1.92,1.52,2.49c0.31-0.73,0.07-1.44,0.02-2.16c1.18-0.53,1.54,0.7,2.31,1.07
		c0.48-0.31,0.02-0.7,0.08-1.04c0.19-0.21,0.4-0.13,0.66-0.05c0.54,0.93-0.26,1.82,0.01,2.83c-1.25-0.05-1.14-1.48-2.05-1.71
		c-0.46,0.44,0.04,0.95-0.1,1.48c-0.72,0-1.45,0-2.23,0c-0.29-0.07,0.1-0.62-0.37-0.6c-2.54,1.51-3.74,1.32-4.68-0.74
		C64.26,76.27,65.21,75.93,66.54,77.18z"/>
	<path style="fill:#FFFFFF;" d="M55.16,79.36c-0.86,0.03-0.86,0.03-1.26-0.65c-0.42-0.02-0.32,0.55-0.36,0.56
		c-0.79,0.12-0.8-0.35-1.04-0.55c-0.1-0.08-0.19-0.05-0.22,0.11c-0.15,0.81-0.7,0.95-1.39,0.84c-0.39-0.07-0.77-0.19-1.16-0.28
		c0.08-0.6,0.05-1.21-0.72-1.23c-0.78-0.02-0.91,0.52-0.74,1.18c-0.31,0.22-0.63,0.22-1.07,0c0.71-1.39,1.06-2.95,2.05-4.37
		c1.08,1.27,0.91,2.95,1.94,4.21c0.64-0.78,0.26-1.56,0.23-2.31c1.15-0.5,1.44,0.39,1.75,1.24c0.77-0.37,0.67-1.75,1.97-1.27
		C55.02,77.62,54.96,78.49,55.16,79.36z"/>
	<path style="fill:#FFFFFF;" d="M79.25,85.72c-0.08,0.08-0.15,0.24-0.23,0.24c-0.99,0.02-1.99,0.01-2.98,0.01
		c-0.04-0.76,0.33-1.54-0.24-2.36c-0.66,0.75-0.05,1.89-1.3,2.44c-0.3,0.06-0.91,0.1-1.46-0.15c-0.75-0.83,0.03-1.92-0.74-2.56
		c0.5-0.55,0.97-0.37,1.51-0.35c0,0.87-0.29,1.77,0.08,2.63c1.01-0.58,1.02-0.64,0.6-2.52c1.35-0.18,2.67-0.44,3.87,0.29
		c0.29,0.47,0.21,0.85,0.06,1.23c-0.17,0.46,0.17,0.6,0.48,0.75C79.09,85.42,79.2,85.54,79.25,85.72z"/>
	<path style="fill:#FFFFFF;" d="M84.79,85.02c0.16,0.15,0.32,0.3,0.59,0.54c0.19-0.84,0.11-1.57-0.21-2.38
		c1.03-0.43,1.89-0.3,2.63,0.29c0.27,0.57-0.03,1-0.07,1.45c0.25,0.31,0.49,0.63,0.82,1.05c-2.04,0-3.95,0-5.96,0
		c0.14-0.92,0.24-1.87-0.19-2.81c0.78-0.36,1.49-0.22,2.2-0.15C85.01,83.72,84.12,84.44,84.79,85.02c-0.37,0.16-0.93-0.62-1.21,0.23
		C84.05,85.41,84.47,85.51,84.79,85.02z"/>
	<path style="fill:#FFFFFF;" d="M10.22,84.84c-0.3,0.45,0.04,0.77-0.05,1.1c-0.38,0.22-0.77,0.13-1.25,0.08
		c0.04-0.97,0.19-1.96-0.08-3.04c0.96,0,1.88-0.27,2.73,0.56c0.55-0.48,1.23-0.79,1.98-0.53c0.63,0.22,0.98,0.77,1.18,1.45
		c-0.16,0.42-0.1,0.97-0.24,1.11c-0.6,0.55-1.02,0.49-1.41,0.5c-0.34,0.01-0.68,0-0.96,0C11.18,85.17,11.18,85.17,10.22,84.84z
		 M13.16,83.64c-0.66,0.06-1.08,0.36-0.97,0.97c0.09,0.52,0.23,1.17,1.04,1.04C13.89,85.01,13.92,84.37,13.16,83.64z"/>
	<path style="fill:#FFFFFF;" d="M69.74,81.86c1.37-0.49,1.37-0.49,2.51-0.03c0.06,0.23,0.09,0.45-0.14,0.64
		c-0.53,0.19-0.65-0.92-1.39-0.35c-0.27,0.49-0.01,0.87,0.51,1.13c1.07,0.53,1.34,1.34,0.93,2.42c-0.72,0.64-1.54,0.33-2.28,0.36
		c-0.36-0.36-0.64-0.69-0.53-1.3c0.71,0.12,0.83,1.28,1.72,0.85c0.28-0.25,0.21-0.6,0.15-0.94C70.5,83.87,69.12,83.45,69.74,81.86z"
		/>
	<path style="fill:#FFFFFF;" d="M15.01,85.96c0.41-0.97,0.05-1.91,0.35-2.86c0.81-0.32,1.52-0.17,2.18,0.39
		c0.25,0.46,0.09,0.88-0.08,1.3c0.07,0.48,0.67,0.62,0.7,1.16C17.12,85.96,16.09,85.96,15.01,85.96z"/>
	<path style="fill:#FFFFFF;" d="M20.57,77.09c0.34,0.39-0.06,0.69,0.07,1.05c0.35,1.03,0.24,1.01-0.64,1.43
		c-0.71,0.34-1.19-0.06-1.81-0.22c0.18-0.83,0.2-1.66,0-2.48C19.03,76.39,19.81,76.3,20.57,77.09z"/>
	<path style="fill:#FFFFFF;" d="M24.3,79.51c0-0.99,0-1.72,0-2.55c0.95-0.56,1.84-0.6,2.61,0.27c0.08,0.5-0.32,0.67-0.43,0.99
		c0.02,0.58,0.88,0.74,0.74,1.59C26.31,79.39,25.4,79.3,24.3,79.51z M25.52,77.94c0.1-0.1,0.23-0.2,0.3-0.33
		c0.09-0.15,0.06-0.31-0.03-0.36c-0.27-0.13-0.4-0.02-0.46,0.13C25.27,77.57,25.25,77.78,25.52,77.94z"/>
	<path style="fill:#FFFFFF;" d="M28.46,78.06c0.17-0.9,0.78-1.42,1.75-1.67c0.54,0.02,1.02,0.31,1.46,0.7
		c0.28,0.6,0.2,1.22,0.12,1.76c-0.32,0.67-0.95,0.71-1.36,0.98C29.36,79.65,28.65,79.17,28.46,78.06z M30.61,77.13
		c-0.7-0.08-1.14,0.15-1.13,0.88c0,0.63,0.41,0.92,1.24,0.94C30.83,78.36,30.9,77.77,30.61,77.13z"/>
	<path style="fill:#FFFFFF;" d="M21.32,76.86c0.81-0.25,1.58-0.86,2.49-0.04c-0.11,0.85-0.24,1.68-1.28,1.92
		c0.43,0.7,0.96,0.04,1.36,0.44c-0.78,1.32-1.72,0.06-2.62,0.34C21.52,78.51,21.49,77.68,21.32,76.86z"/>
	<path style="fill:#FFFFFF;" d="M79.25,85.72c-0.05-0.18-0.17-0.3-0.35-0.35c0-0.51,0-1.02,0-1.49c0.68-0.78,1.46-1.05,2.37-0.89
		c0.4,0.07,0.76,0.28,0.59,0.88c-0.58,0.25-1.2-1.11-1.8,0.09c-0.13,0.59-0.31,1.32,0.54,1.72c0.46-0.25,0.22-0.54,0.21-0.81
		c0.29-0.3,0.62-0.18,0.95-0.11c0.33,0.33,0.31,0.7,0.07,1.19C80.98,86.13,80.1,86.21,79.25,85.72z"/>
	<path style="fill:#FFFFFF;" d="M34.5,78.62c-0.31-0.01-0.52-0.18-0.73-0.01c-0.32,0.23,0.1,0.53-0.1,0.78
		c-0.37,0.19-0.75,0.12-1.26,0.04c0.15-0.85,0.18-1.71-0.01-2.72c0.84,0.28,1.66-0.91,2.5,0.2C34.77,77.44,34.64,77.98,34.5,78.62z"
		/>
	<path style="fill:#FFFFFF;" d="M88.3,83.25c0.43-0.46,0.89-0.28,1.31-0.27c0.46,0.2-0.22,0.71,0.3,0.87
		c0.18,0.06,0.32-0.06,0.36-0.21c0.13-0.53,0.34-0.86,1.02-0.5c-0.11,0.96-1.42,1.61-0.76,2.75c-0.48,0.24-0.91,0.23-1.37,0.05
		c-0.03-0.46,0.24-0.89,0.09-1.26C89.04,84.08,88.39,83.83,88.3,83.25z"/>
	<path style="fill:#FFFFFF;" d="M46.47,83.92c-0.63-0.22-0.99-0.35-1.34-0.48c-0.83,0.86-1.02,1.39-0.62,1.89
		c0.6,0.76,1.18,0.11,1.71-0.17c0.19,0.34,0.15,0.55-0.03,0.73c-1.89,0.29-2.67,0.04-2.9-0.93c-0.17-0.72,0.36-1.62,1.14-1.9
		C45.3,82.74,45.97,82.95,46.47,83.92z"/>
	<path style="fill:#FFFFFF;" d="M67.72,83.83c-0.59,0.21-0.76-0.4-1.21-0.37c-0.17,0.09-0.37,0.2-0.59,0.31
		c-0.23,0.55-0.32,1.13,0.09,1.61c0.6,0.71,1.11,0.05,1.74-0.26c0.04,0.56-0.22,0.83-0.63,0.9c-0.39,0.07-0.81,0.08-1.2,0.02
		c-0.89-0.14-1.17-0.71-1.14-2.18c0.54-0.73,1.32-1,2.23-0.89C67.43,83.02,67.76,83.23,67.72,83.83z"/>
	<path style="fill:#FFFFFF;" d="M57.03,70.53c0.84,0.24,1.29,0.68,1.39,1.42c-0.87,1-1.52,1.21-2.07,0.69
		c-0.22-0.21-0.29-0.47-0.28-0.77C56.08,71.4,56.08,71.4,57.03,70.53z"/>
	<path style="fill:#FFFFFF;" d="M59.01,46.52c-1.09,0.26-1.76-0.38-2.69-0.89c0.69-0.54,1.26-0.99,1.95-1.53
		c0.04,0.74-0.61,0.85-0.65,1.31c0.45,0.39,0.85-0.16,1.28-0.08C59.3,45.64,59.2,46.01,59.01,46.52z"/>
	<path style="fill:#FFFFFF;" d="M49.37,48.3c-0.5-0.8,0.52-1.3-0.11-1.84c0.43-0.26,0.65-0.14,0.88,0.13
		C50.17,47.22,49.85,47.72,49.37,48.3z"/>
	<path style="fill:#FFFFFF;" d="M51.17,49.35c-0.79-0.14-0.78-0.65-1-1.3C50.78,48.35,51.11,48.6,51.17,49.35z"/>
</g>
</svg>
