<svg version="1" xmlns="http://www.w3.org/2000/svg" width="120" height="120" viewBox="0 0 90.000000 90.000000"><path d="M47.3 21.6c-.5 1.1-.8 2.5-.7 3.1.1.7.2 1.7.3 2.1 0 .4 1.9.8 4.1.9 3.5.1 4.3-.3 5.5-2.8.8-1.5 1.5-3.3 1.5-3.9 0-2-2.9-.9-5.4 2.1-2.1 2.4-2.6 2.7-2.6 1.2 0-1-.4-2.4-.9-3.2-.7-1.1-1.1-1-1.8.5zM84.5 28c-1 1.1-1.5 2-1.1 2 .4 0 0 .8-1 1.7-1.9 2-4.9 2.1-22.4.8-9.7-.7-10.9-.6-15.8 1.5-5.8 2.5-9.2 6-9.2 9.6 0 3.5 1.3 2.9 3.1-1.5 1.2-2.8 2.9-4.5 5.5-5.9 4.1-2 13.4-3.5 13.4-2.1 0 .4-1.5 3.9-3.4 7.6-1.8 3.7-4.6 10.1-6.1 14.1-3.3 8.7-6.9 13.5-8.5 11.2-.7-1.1-.5-1.9 1-3.2 1.4-1.1 1.7-1.9.9-2.3-1.4-.9-3.9 1.5-4.3 4.1-.8 5 4.7 5.9 9 1.5 3.1-3.2 5.9-8.3 12.4-22.6 2.2-4.9 4.6-9.2 5.2-9.6.6-.4 2.4-.5 3.9-.3 1.6.2 4.4.6 6.2.9 4.4.6 10.4-1.4 11-3.6.3-1.1 1.1-1.9 1.9-1.9.7 0 1.9-.9 2.6-2 1-1.7 1-2-.6-2-1.1 0-2.7.9-3.7 2z"/><path d="M17.4 29c-4.8 1.1-10.9 4.9-12.7 8-1.9 3.1-2.3 8-.7 8 .6 0 1-1.2 1-2.6 0-4 1.8-6.4 6.3-8.4 3.9-1.7 9.7-3.3 9.7-2.6 0 .2-1.3 3.2-2.9 6.8-2.7 5.8-3.4 6.6-7 7.6-9.8 3-14.7 16.9-6.8 19.6 4 1.4 7.5-1.7 11.7-10.2l3.5-7.2 4.6.6c5.2.7 8.9-.7 8.9-3.4-.1-1.5-.2-1.5-1.5.1-1.5 2-7.1 2.6-9.8 1-1.3-.7-1-1.9 2-8.1l3.4-7.3 5.2.7C42.7 33 50 31.9 50 28.8c0-.6-.6-.5-1.5.2-1.7 1.4-8.2 1.7-14 .6-6.2-1.1-13.7-1.4-17.1-.6zM14 47.6C14 49.1 6.6 63 5.8 63c-.4 0-1.1 0-1.5.1-2.6.2-1.5-9 1.4-11.9 2.5-2.5 8.3-5 8.3-3.6z"/></svg>