<?xml version="1.0" encoding="utf-8"?>
<!-- Generator: Adobe Illustrator 23.0.2, SVG Export Plug-In . SVG Version: 6.00 Build 0)  -->
<svg version="1.1" id="Layer_1" xmlns="http://www.w3.org/2000/svg" xmlns:xlink="http://www.w3.org/1999/xlink" x="0px" y="0px"
	 width="100px" height="100px" viewBox="0 0 100 100" style="enable-background:new 0 0 100 100;" xml:space="preserve">
<g>
	<path style="fill:#FFFFFF;" d="M19.39,31.34c1.44,0,2.64,0,4.06,0c4.51,7.98,9.06,16.04,13.61,24.11c3.08,0,6.09,0.34,8.99-0.08
		c4.11-0.6,6.71-3.25,7.37-7.31c0.75-4.6-0.7-8.58-4.21-11.73c-1.19-1.07-2.51-1.68-4.18-1.6c-1.9,0.09-3.82,0.01-5.73,0.03
		c-0.52,0-1.06-0.12-1.59,0.21c-0.31,0.51-0.18,1.1-0.18,1.67c-0.03,4.19-0.05,8.38-0.06,12.57c0,1.11-0.08,2.22-0.3,3.5
		c-0.79-0.97-1.21-2.02-1.81-2.95c-0.95-1.47-1.31-3.04-1.28-4.82c0.08-3.82-0.01-7.64-0.02-11.45c0-0.57-0.12-1.16,0.15-1.74
		c0.47-0.32,1.02-0.18,1.53-0.18c3.45-0.01,6.9,0.08,10.34-0.04c2.22-0.07,4.04,0.7,5.69,2.04c6.13,5,7.29,13.92,2.61,20.29
		c-1.87,2.54-4.31,4.36-7.42,5.17c-0.51,0.13-1.04,0.23-1.56,0.23c-3.34,0.02-6.68,0-10.02-0.01c-0.21,0-0.42-0.06-0.8-0.12
		C29.57,49.97,24.52,40.73,19.39,31.34z"/>
	<path style="fill:#FFFFFF;" d="M52.12,31.54c1.64,0,3.27,0,4.91,0c0.81,0,1.39,0.45,1.94,0.96c1.36,1.25,2.26,2.82,2.93,4.49
		c2.65,6.6,2.58,13.01-1.47,19.1c-0.76,1.14-1.62,2.23-2.81,3.12c-1.77,0-3.6,0-5.56,0c5-3.32,7.58-7.92,7.76-13.75
		C60.02,39.43,56.81,35.19,52.12,31.54z"/>
	<path style="fill:#FFFFFF;" d="M81.46,49.47c1.9,3.22,3.75,6.36,5.67,9.63c-1.53,0.22-2.88,0.12-4.4,0.07
		c-1.13-1.89-2.29-3.83-3.5-5.86c-3.66,0-7.3,0-11.07,0c-1.22,1.76-1.88,3.92-3.13,5.8c-1.33,0-2.64,0-4.23,0
		c1.73-3.3,3.38-6.45,5.05-9.65C71.05,49.47,76.18,49.47,81.46,49.47z"/>
	<path style="fill:#FFFFFF;" d="M12.7,53.31c-0.98,1.93-1.94,3.82-2.9,5.72c-1.35,0.29-2.65,0.12-3.97,0.11
		C6,57.85,8.7,52.42,10.6,49.47c5.07,0,10.19,0,15.48,0c1.85,3.14,3.73,6.31,5.71,9.66c-1.58,0-2.93,0-4.4,0
		c-1.31-1.77-2.16-3.92-3.6-5.82C20.18,53.31,16.53,53.31,12.7,53.31z"/>
	<path style="fill:#FFFFFF;" d="M94.18,59.22c-1.53,0-2.8,0-4.19,0c-5.04-9.21-10.08-18.44-15.19-27.8
		c1.41-0.24,2.65-0.14,4.01-0.08C83.88,40.56,88.97,49.78,94.18,59.22z"/>
	<path style="fill:#FFFFFF;" d="M17.81,33.92c2.44,4.52,4.7,8.71,7.03,13.03c-1.37,0.42-2.59,0.18-3.87,0.11
		c-0.93-1.67-1.85-3.33-2.84-5.12c-1.38,1.59-1.75,3.53-2.8,5.13c-1.16,0.13-2.29,0.17-3.58-0.09
		C13.75,42.67,15.71,38.46,17.81,33.92z"/>
	<path style="fill:#FFFFFF;" d="M73.16,33.88c2.46,4.59,4.73,8.81,7.05,13.13c-1.35,0.35-2.56,0.06-3.78,0.14
		c-1.23-1.63-1.8-3.6-3.09-5.37c-0.92,1.84-1.77,3.52-2.63,5.22c-1.15,0.32-2.24,0.09-3.62,0.14
		C69.02,42.65,71.12,38.48,73.16,33.88z"/>
	<path style="fill:#FFFFFF;" d="M6.66,61.94h0.9l1.87,4.85H8.52l-0.46-1.28H6.13l-0.46,1.28H4.8L6.66,61.94z M6.36,64.86h1.48
		l-0.73-2.09H7.09L6.36,64.86z"/>
	<path style="fill:#FFFFFF;" d="M9.78,63.28h0.73v0.49h0.02c0.06-0.09,0.12-0.16,0.19-0.24c0.07-0.07,0.14-0.13,0.23-0.18
		s0.18-0.09,0.29-0.12c0.11-0.03,0.23-0.04,0.37-0.04c0.21,0,0.41,0.05,0.59,0.14c0.18,0.1,0.31,0.24,0.39,0.44
		c0.13-0.18,0.28-0.32,0.46-0.43s0.39-0.16,0.65-0.16c0.37,0,0.66,0.09,0.87,0.27c0.21,0.18,0.31,0.48,0.31,0.91v2.42H14.1v-2.05
		c0-0.14,0-0.27-0.01-0.38c-0.01-0.11-0.04-0.21-0.08-0.3c-0.04-0.08-0.11-0.15-0.19-0.19c-0.09-0.05-0.2-0.07-0.35-0.07
		c-0.26,0-0.45,0.08-0.57,0.24c-0.12,0.16-0.18,0.39-0.18,0.69v2.06h-0.77v-2.26c0-0.24-0.04-0.43-0.13-0.55
		c-0.09-0.12-0.25-0.19-0.49-0.19c-0.1,0-0.2,0.02-0.29,0.06c-0.09,0.04-0.17,0.1-0.24,0.18c-0.07,0.08-0.13,0.17-0.17,0.28
		c-0.04,0.11-0.06,0.24-0.06,0.39v2.09H9.78V63.28z"/>
	<path style="fill:#FFFFFF;" d="M16.3,65.24c0,0.14,0.02,0.27,0.06,0.39c0.04,0.13,0.1,0.24,0.17,0.33s0.17,0.17,0.29,0.23
		s0.26,0.09,0.42,0.09c0.23,0,0.41-0.05,0.55-0.15c0.14-0.1,0.24-0.24,0.31-0.44h0.73c-0.04,0.19-0.11,0.36-0.21,0.51
		c-0.1,0.15-0.22,0.27-0.36,0.38c-0.14,0.1-0.3,0.18-0.47,0.23c-0.17,0.05-0.36,0.08-0.55,0.08c-0.28,0-0.52-0.05-0.73-0.14
		c-0.21-0.09-0.39-0.22-0.54-0.38c-0.15-0.16-0.26-0.36-0.33-0.58c-0.07-0.23-0.11-0.48-0.11-0.75c0-0.25,0.04-0.49,0.12-0.71
		c0.08-0.22,0.19-0.42,0.34-0.59c0.15-0.17,0.32-0.3,0.53-0.4c0.21-0.1,0.44-0.15,0.71-0.15c0.28,0,0.52,0.06,0.74,0.17
		c0.22,0.11,0.4,0.27,0.55,0.46c0.15,0.19,0.25,0.41,0.32,0.66c0.07,0.25,0.08,0.5,0.05,0.76H16.3z M18.11,64.73
		c-0.01-0.12-0.04-0.24-0.08-0.35c-0.04-0.11-0.1-0.21-0.18-0.3c-0.07-0.08-0.17-0.15-0.27-0.2s-0.23-0.08-0.36-0.08
		c-0.14,0-0.26,0.02-0.37,0.07c-0.11,0.05-0.21,0.11-0.28,0.2c-0.08,0.08-0.14,0.18-0.19,0.3c-0.05,0.11-0.07,0.24-0.08,0.37H18.11z
		"/>
	<path style="fill:#FFFFFF;" d="M19.47,63.28h0.73v0.68h0.01c0.02-0.1,0.07-0.19,0.13-0.28c0.07-0.09,0.14-0.17,0.24-0.25
		s0.2-0.14,0.31-0.18c0.11-0.05,0.23-0.07,0.35-0.07c0.09,0,0.15,0,0.19,0.01c0.03,0,0.07,0.01,0.1,0.01v0.75
		c-0.05-0.01-0.11-0.02-0.17-0.02c-0.06-0.01-0.11-0.01-0.17-0.01c-0.13,0-0.26,0.03-0.37,0.08c-0.12,0.05-0.22,0.13-0.3,0.23
		c-0.09,0.1-0.15,0.23-0.2,0.38c-0.05,0.15-0.07,0.32-0.07,0.52v1.67h-0.77V63.28z"/>
	<path style="fill:#FFFFFF;" d="M21.88,61.94h0.77v0.73h-0.77V61.94z M21.88,63.28h0.77v3.51h-0.77V63.28z"/>
	<path style="fill:#FFFFFF;" d="M25.87,64.46c-0.03-0.22-0.12-0.38-0.26-0.49c-0.14-0.11-0.32-0.17-0.54-0.17
		c-0.1,0-0.21,0.02-0.32,0.05c-0.11,0.03-0.22,0.1-0.31,0.19c-0.1,0.09-0.17,0.22-0.24,0.39c-0.06,0.16-0.09,0.38-0.09,0.65
		c0,0.15,0.02,0.29,0.05,0.43c0.03,0.15,0.09,0.27,0.16,0.39c0.07,0.11,0.17,0.21,0.29,0.27c0.12,0.07,0.26,0.11,0.43,0.11
		c0.23,0,0.41-0.07,0.56-0.21c0.15-0.14,0.24-0.34,0.27-0.59h0.77c-0.07,0.46-0.25,0.81-0.52,1.05c-0.27,0.24-0.64,0.36-1.09,0.36
		c-0.28,0-0.52-0.05-0.73-0.14s-0.39-0.22-0.53-0.38c-0.15-0.16-0.25-0.35-0.33-0.57c-0.07-0.22-0.11-0.46-0.11-0.72
		c0-0.26,0.04-0.51,0.11-0.74c0.07-0.23,0.18-0.43,0.33-0.6c0.14-0.17,0.32-0.3,0.54-0.4c0.22-0.1,0.47-0.15,0.76-0.15
		c0.2,0,0.4,0.03,0.58,0.08c0.18,0.05,0.35,0.13,0.49,0.23c0.14,0.1,0.26,0.24,0.35,0.39c0.09,0.16,0.14,0.35,0.16,0.56H25.87z"/>
	<path style="fill:#FFFFFF;" d="M30.22,66.01c0,0.1,0.01,0.16,0.04,0.2c0.03,0.04,0.07,0.06,0.15,0.06c0.02,0,0.05,0,0.08,0
		c0.03,0,0.07,0,0.11-0.01v0.54c-0.03,0.01-0.06,0.02-0.1,0.03c-0.04,0.01-0.09,0.02-0.13,0.03c-0.05,0.01-0.09,0.02-0.14,0.02
		c-0.05,0-0.08,0.01-0.12,0.01c-0.16,0-0.29-0.03-0.39-0.1c-0.1-0.06-0.17-0.17-0.2-0.33c-0.15,0.15-0.34,0.26-0.57,0.33
		s-0.44,0.1-0.65,0.1c-0.16,0-0.31-0.02-0.46-0.06c-0.15-0.04-0.27-0.11-0.38-0.19c-0.11-0.08-0.2-0.19-0.26-0.32
		c-0.07-0.13-0.1-0.28-0.1-0.45c0-0.22,0.04-0.39,0.12-0.53c0.08-0.14,0.18-0.24,0.31-0.32c0.13-0.08,0.27-0.13,0.43-0.17
		s0.32-0.06,0.49-0.08c0.14-0.03,0.27-0.05,0.4-0.06c0.13-0.01,0.24-0.03,0.34-0.06c0.1-0.03,0.17-0.07,0.23-0.13
		c0.06-0.06,0.08-0.14,0.08-0.26c0-0.1-0.02-0.18-0.07-0.24c-0.05-0.06-0.11-0.11-0.18-0.15c-0.07-0.03-0.15-0.06-0.23-0.07
		c-0.09-0.01-0.17-0.02-0.24-0.02c-0.22,0-0.4,0.05-0.54,0.14c-0.14,0.09-0.22,0.23-0.24,0.42h-0.77c0.01-0.23,0.07-0.41,0.16-0.56
		c0.1-0.15,0.22-0.27,0.36-0.36c0.15-0.09,0.31-0.15,0.5-0.19c0.19-0.04,0.38-0.05,0.57-0.05c0.17,0,0.34,0.02,0.51,0.05
		c0.17,0.04,0.32,0.1,0.45,0.18c0.13,0.08,0.24,0.19,0.32,0.32c0.08,0.13,0.12,0.29,0.12,0.47V66.01z M29.44,65.03
		c-0.12,0.08-0.26,0.12-0.43,0.14c-0.17,0.02-0.34,0.04-0.52,0.07c-0.08,0.01-0.16,0.03-0.24,0.06c-0.08,0.02-0.14,0.06-0.2,0.1
		c-0.06,0.04-0.11,0.1-0.14,0.17c-0.03,0.07-0.05,0.15-0.05,0.26c0,0.09,0.03,0.16,0.07,0.22c0.05,0.06,0.11,0.11,0.18,0.14
		c0.07,0.03,0.15,0.06,0.23,0.07s0.16,0.02,0.23,0.02c0.09,0,0.18-0.01,0.28-0.03s0.19-0.06,0.28-0.12
		c0.09-0.05,0.16-0.12,0.22-0.21c0.06-0.08,0.09-0.19,0.09-0.31V65.03z"/>
	<path style="fill:#FFFFFF;" d="M31.05,63.28h0.73v0.52l0.01,0.01c0.12-0.19,0.27-0.35,0.46-0.46c0.19-0.11,0.4-0.17,0.63-0.17
		c0.39,0,0.69,0.1,0.91,0.3s0.33,0.5,0.33,0.9v2.41h-0.77v-2.21c-0.01-0.28-0.07-0.48-0.18-0.6c-0.11-0.12-0.28-0.19-0.51-0.19
		c-0.13,0-0.25,0.02-0.35,0.07c-0.1,0.05-0.19,0.11-0.26,0.2c-0.07,0.08-0.13,0.18-0.17,0.3c-0.04,0.11-0.06,0.23-0.06,0.36v2.07
		h-0.77V63.28z"/>
	<path style="fill:#FFFFFF;" d="M36.95,61.94h2.01c0.37,0,0.69,0.06,0.96,0.19c0.27,0.13,0.49,0.3,0.67,0.52
		c0.17,0.22,0.3,0.48,0.38,0.77c0.08,0.29,0.13,0.61,0.13,0.94s-0.04,0.65-0.13,0.94c-0.08,0.3-0.21,0.55-0.38,0.77
		c-0.17,0.22-0.39,0.39-0.67,0.52c-0.27,0.13-0.59,0.19-0.96,0.19h-2.01V61.94z M37.8,66.1h0.84c0.33,0,0.6-0.04,0.81-0.13
		c0.21-0.09,0.38-0.21,0.5-0.37c0.12-0.16,0.2-0.34,0.24-0.55c0.04-0.21,0.06-0.44,0.06-0.68c0-0.24-0.02-0.47-0.06-0.68
		c-0.04-0.21-0.12-0.39-0.24-0.55c-0.12-0.16-0.28-0.28-0.5-0.37c-0.21-0.09-0.48-0.13-0.81-0.13H37.8V66.1z"/>
	<path style="fill:#FFFFFF;" d="M42.35,65.24c0,0.14,0.02,0.27,0.06,0.39c0.04,0.13,0.1,0.24,0.17,0.33
		c0.08,0.1,0.17,0.17,0.29,0.23s0.26,0.09,0.42,0.09c0.23,0,0.41-0.05,0.55-0.15c0.14-0.1,0.24-0.24,0.31-0.44h0.73
		c-0.04,0.19-0.11,0.36-0.21,0.51c-0.1,0.15-0.22,0.27-0.36,0.38c-0.14,0.1-0.3,0.18-0.47,0.23c-0.17,0.05-0.36,0.08-0.55,0.08
		c-0.28,0-0.52-0.05-0.73-0.14c-0.21-0.09-0.39-0.22-0.54-0.38c-0.15-0.16-0.26-0.36-0.33-0.58c-0.07-0.23-0.11-0.48-0.11-0.75
		c0-0.25,0.04-0.49,0.12-0.71c0.08-0.22,0.19-0.42,0.34-0.59c0.15-0.17,0.32-0.3,0.53-0.4c0.21-0.1,0.44-0.15,0.71-0.15
		c0.28,0,0.52,0.06,0.74,0.17c0.22,0.11,0.4,0.27,0.55,0.46c0.15,0.19,0.25,0.41,0.32,0.66c0.07,0.25,0.08,0.5,0.05,0.76H42.35z
		 M44.16,64.73c-0.01-0.12-0.04-0.24-0.08-0.35c-0.04-0.11-0.1-0.21-0.18-0.3c-0.07-0.08-0.17-0.15-0.27-0.2
		c-0.11-0.05-0.23-0.08-0.36-0.08c-0.14,0-0.26,0.02-0.37,0.07c-0.11,0.05-0.21,0.11-0.28,0.2c-0.08,0.08-0.14,0.18-0.19,0.3
		c-0.05,0.11-0.07,0.24-0.08,0.37H44.16z"/>
	<path style="fill:#FFFFFF;" d="M45.52,63.28h0.73v0.52l0.01,0.01c0.12-0.19,0.27-0.35,0.46-0.46c0.19-0.11,0.4-0.17,0.63-0.17
		c0.39,0,0.69,0.1,0.91,0.3s0.33,0.5,0.33,0.9v2.41h-0.77v-2.21c-0.01-0.28-0.07-0.48-0.18-0.6c-0.11-0.12-0.28-0.19-0.51-0.19
		c-0.13,0-0.25,0.02-0.35,0.07c-0.1,0.05-0.19,0.11-0.26,0.2c-0.07,0.08-0.13,0.18-0.17,0.3c-0.04,0.11-0.06,0.23-0.06,0.36v2.07
		h-0.77V63.28z"/>
	<path style="fill:#FFFFFF;" d="M49.07,63.28h0.58v-1.05h0.77v1.05h0.7v0.58h-0.7v1.87c0,0.08,0,0.15,0.01,0.21
		c0.01,0.06,0.02,0.11,0.05,0.15c0.03,0.04,0.06,0.07,0.11,0.09c0.05,0.02,0.12,0.03,0.2,0.03c0.05,0,0.11,0,0.16,0
		s0.11-0.01,0.16-0.02v0.6c-0.09,0.01-0.17,0.02-0.25,0.03c-0.08,0.01-0.17,0.01-0.25,0.01c-0.2,0-0.37-0.02-0.49-0.06
		c-0.12-0.04-0.22-0.1-0.29-0.17c-0.07-0.08-0.12-0.17-0.14-0.28c-0.03-0.11-0.04-0.24-0.04-0.39v-2.07h-0.58V63.28z"/>
	<path style="fill:#FFFFFF;" d="M54.63,66.01c0,0.1,0.01,0.16,0.04,0.2c0.03,0.04,0.07,0.06,0.15,0.06c0.02,0,0.05,0,0.08,0
		c0.03,0,0.07,0,0.11-0.01v0.54c-0.03,0.01-0.06,0.02-0.1,0.03c-0.04,0.01-0.09,0.02-0.13,0.03c-0.05,0.01-0.09,0.02-0.14,0.02
		c-0.05,0-0.08,0.01-0.12,0.01c-0.16,0-0.29-0.03-0.39-0.1c-0.1-0.06-0.17-0.17-0.2-0.33c-0.15,0.15-0.34,0.26-0.57,0.33
		c-0.22,0.07-0.44,0.1-0.65,0.1c-0.16,0-0.31-0.02-0.46-0.06c-0.15-0.04-0.27-0.11-0.38-0.19c-0.11-0.08-0.2-0.19-0.26-0.32
		c-0.07-0.13-0.1-0.28-0.1-0.45c0-0.22,0.04-0.39,0.12-0.53c0.08-0.14,0.18-0.24,0.31-0.32c0.13-0.08,0.27-0.13,0.43-0.17
		s0.32-0.06,0.49-0.08c0.14-0.03,0.27-0.05,0.4-0.06c0.13-0.01,0.24-0.03,0.34-0.06c0.1-0.03,0.17-0.07,0.23-0.13
		c0.06-0.06,0.08-0.14,0.08-0.26c0-0.1-0.02-0.18-0.07-0.24c-0.05-0.06-0.11-0.11-0.18-0.15c-0.07-0.03-0.15-0.06-0.23-0.07
		c-0.09-0.01-0.17-0.02-0.24-0.02c-0.22,0-0.4,0.05-0.54,0.14c-0.14,0.09-0.22,0.23-0.24,0.42h-0.77c0.01-0.23,0.07-0.41,0.16-0.56
		c0.1-0.15,0.22-0.27,0.36-0.36c0.15-0.09,0.31-0.15,0.5-0.19c0.19-0.04,0.38-0.05,0.57-0.05c0.17,0,0.34,0.02,0.51,0.05
		c0.17,0.04,0.32,0.1,0.45,0.18c0.13,0.08,0.24,0.19,0.32,0.32c0.08,0.13,0.12,0.29,0.12,0.47V66.01z M53.85,65.03
		c-0.12,0.08-0.26,0.12-0.43,0.14c-0.17,0.02-0.34,0.04-0.52,0.07c-0.08,0.01-0.16,0.03-0.24,0.06c-0.08,0.02-0.14,0.06-0.2,0.1
		c-0.06,0.04-0.11,0.1-0.14,0.17c-0.03,0.07-0.05,0.15-0.05,0.26c0,0.09,0.03,0.16,0.07,0.22c0.05,0.06,0.11,0.11,0.18,0.14
		c0.07,0.03,0.15,0.06,0.23,0.07s0.16,0.02,0.23,0.02c0.09,0,0.18-0.01,0.28-0.03c0.1-0.02,0.19-0.06,0.28-0.12
		c0.09-0.05,0.16-0.12,0.22-0.21c0.06-0.08,0.09-0.19,0.09-0.31V65.03z"/>
	<path style="fill:#FFFFFF;" d="M55.48,61.94h0.77v4.85h-0.77V61.94z"/>
	<path style="fill:#FFFFFF;" d="M60.39,61.94h0.9l1.87,4.85h-0.91l-0.46-1.28h-1.94l-0.46,1.28h-0.88L60.39,61.94z M60.09,64.86
		h1.48l-0.73-2.09h-0.02L60.09,64.86z"/>
	<path style="fill:#FFFFFF;" d="M64.1,65.66c0.02,0.23,0.11,0.39,0.26,0.48c0.15,0.09,0.33,0.14,0.54,0.14
		c0.07,0,0.16-0.01,0.25-0.02c0.09-0.01,0.18-0.03,0.26-0.06c0.08-0.03,0.15-0.08,0.2-0.14c0.05-0.06,0.08-0.14,0.07-0.24
		c0-0.1-0.04-0.18-0.11-0.24c-0.07-0.06-0.15-0.11-0.26-0.15c-0.11-0.04-0.23-0.07-0.36-0.1c-0.14-0.03-0.27-0.06-0.41-0.09
		c-0.15-0.03-0.28-0.07-0.42-0.11c-0.13-0.05-0.25-0.11-0.36-0.18c-0.11-0.08-0.19-0.18-0.26-0.3c-0.06-0.12-0.09-0.27-0.09-0.44
		c0-0.19,0.05-0.35,0.14-0.48c0.09-0.13,0.21-0.23,0.35-0.31c0.14-0.08,0.3-0.13,0.48-0.17c0.17-0.03,0.34-0.05,0.5-0.05
		c0.18,0,0.35,0.02,0.52,0.06c0.17,0.04,0.31,0.1,0.45,0.19c0.13,0.09,0.24,0.2,0.33,0.34c0.09,0.14,0.14,0.31,0.17,0.5h-0.81
		c-0.04-0.19-0.12-0.31-0.25-0.37c-0.13-0.06-0.29-0.1-0.46-0.1c-0.05,0-0.12,0-0.19,0.01c-0.08,0.01-0.15,0.03-0.21,0.05
		s-0.12,0.06-0.17,0.11c-0.05,0.05-0.07,0.11-0.07,0.19c0,0.1,0.03,0.17,0.1,0.23c0.07,0.06,0.15,0.11,0.26,0.15
		c0.11,0.04,0.23,0.07,0.36,0.1c0.14,0.03,0.28,0.06,0.42,0.09c0.14,0.03,0.28,0.07,0.41,0.12c0.14,0.05,0.26,0.11,0.36,0.18
		c0.11,0.08,0.19,0.17,0.26,0.29c0.07,0.12,0.1,0.26,0.1,0.44c0,0.21-0.05,0.38-0.14,0.53c-0.1,0.15-0.22,0.26-0.37,0.35
		c-0.15,0.09-0.32,0.16-0.51,0.2c-0.19,0.04-0.37,0.06-0.55,0.06c-0.22,0-0.43-0.02-0.62-0.07c-0.19-0.05-0.35-0.13-0.49-0.23
		s-0.25-0.23-0.33-0.38c-0.08-0.15-0.12-0.33-0.13-0.54H64.1z"/>
	<path style="fill:#FFFFFF;" d="M67.63,65.66c0.02,0.23,0.11,0.39,0.26,0.48c0.15,0.09,0.33,0.14,0.54,0.14
		c0.07,0,0.16-0.01,0.25-0.02c0.09-0.01,0.18-0.03,0.26-0.06c0.08-0.03,0.15-0.08,0.2-0.14c0.05-0.06,0.08-0.14,0.07-0.24
		c0-0.1-0.04-0.18-0.11-0.24c-0.07-0.06-0.15-0.11-0.26-0.15c-0.11-0.04-0.23-0.07-0.36-0.1c-0.14-0.03-0.27-0.06-0.41-0.09
		c-0.15-0.03-0.28-0.07-0.42-0.11c-0.13-0.05-0.25-0.11-0.36-0.18c-0.11-0.08-0.19-0.18-0.26-0.3c-0.06-0.12-0.09-0.27-0.09-0.44
		c0-0.19,0.05-0.35,0.14-0.48c0.09-0.13,0.21-0.23,0.35-0.31c0.14-0.08,0.3-0.13,0.48-0.17c0.17-0.03,0.34-0.05,0.5-0.05
		c0.18,0,0.35,0.02,0.52,0.06s0.31,0.1,0.45,0.19c0.13,0.09,0.24,0.2,0.33,0.34c0.09,0.14,0.14,0.31,0.17,0.5h-0.81
		c-0.04-0.19-0.12-0.31-0.25-0.37c-0.13-0.06-0.29-0.1-0.46-0.1c-0.05,0-0.12,0-0.19,0.01c-0.08,0.01-0.15,0.03-0.21,0.05
		s-0.12,0.06-0.17,0.11c-0.05,0.05-0.07,0.11-0.07,0.19c0,0.1,0.03,0.17,0.1,0.23c0.07,0.06,0.15,0.11,0.26,0.15
		c0.11,0.04,0.23,0.07,0.36,0.1c0.14,0.03,0.28,0.06,0.42,0.09c0.14,0.03,0.28,0.07,0.41,0.12c0.14,0.05,0.26,0.11,0.36,0.18
		c0.11,0.08,0.19,0.17,0.26,0.29c0.07,0.12,0.1,0.26,0.1,0.44c0,0.21-0.05,0.38-0.14,0.53c-0.1,0.15-0.22,0.26-0.37,0.35
		c-0.15,0.09-0.32,0.16-0.51,0.2c-0.19,0.04-0.37,0.06-0.55,0.06c-0.22,0-0.43-0.02-0.62-0.07c-0.19-0.05-0.35-0.13-0.49-0.23
		s-0.25-0.23-0.33-0.38c-0.08-0.15-0.12-0.33-0.13-0.54H67.63z"/>
	<path style="fill:#FFFFFF;" d="M72.18,66.89c-0.28,0-0.53-0.05-0.75-0.14c-0.22-0.09-0.41-0.22-0.56-0.38
		c-0.15-0.16-0.27-0.36-0.35-0.58c-0.08-0.23-0.12-0.48-0.12-0.75c0-0.27,0.04-0.51,0.12-0.74c0.08-0.23,0.19-0.42,0.35-0.58
		c0.15-0.16,0.34-0.29,0.56-0.38c0.22-0.09,0.47-0.14,0.75-0.14c0.28,0,0.53,0.05,0.75,0.14c0.22,0.09,0.41,0.22,0.56,0.38
		c0.15,0.16,0.27,0.36,0.35,0.58c0.08,0.23,0.12,0.47,0.12,0.74c0,0.27-0.04,0.52-0.12,0.75c-0.08,0.23-0.19,0.42-0.35,0.58
		c-0.15,0.16-0.34,0.29-0.56,0.38C72.71,66.84,72.46,66.89,72.18,66.89z M72.18,66.28c0.17,0,0.32-0.04,0.45-0.11
		c0.13-0.07,0.23-0.17,0.31-0.29c0.08-0.12,0.14-0.25,0.18-0.4c0.04-0.15,0.06-0.3,0.06-0.45c0-0.15-0.02-0.3-0.06-0.45
		c-0.04-0.15-0.1-0.28-0.18-0.4c-0.08-0.11-0.19-0.21-0.31-0.28c-0.13-0.07-0.28-0.11-0.45-0.11c-0.17,0-0.32,0.04-0.45,0.11
		c-0.13,0.07-0.23,0.17-0.31,0.28c-0.08,0.12-0.14,0.25-0.18,0.4c-0.04,0.15-0.06,0.3-0.06,0.45c0,0.15,0.02,0.31,0.06,0.45
		c0.04,0.15,0.1,0.28,0.18,0.4c0.08,0.12,0.19,0.21,0.31,0.29C71.86,66.24,72.01,66.28,72.18,66.28z"/>
	<path style="fill:#FFFFFF;" d="M76.97,64.46c-0.03-0.22-0.12-0.38-0.26-0.49c-0.14-0.11-0.32-0.17-0.54-0.17
		c-0.1,0-0.21,0.02-0.32,0.05c-0.11,0.03-0.22,0.1-0.31,0.19s-0.17,0.22-0.24,0.39c-0.06,0.16-0.09,0.38-0.09,0.65
		c0,0.15,0.02,0.29,0.05,0.43c0.03,0.15,0.09,0.27,0.16,0.39c0.07,0.11,0.17,0.21,0.29,0.27c0.12,0.07,0.26,0.11,0.43,0.11
		c0.23,0,0.41-0.07,0.56-0.21c0.15-0.14,0.24-0.34,0.27-0.59h0.77c-0.07,0.46-0.25,0.81-0.52,1.05c-0.27,0.24-0.64,0.36-1.09,0.36
		c-0.28,0-0.52-0.05-0.73-0.14s-0.39-0.22-0.53-0.38c-0.15-0.16-0.25-0.35-0.33-0.57c-0.07-0.22-0.11-0.46-0.11-0.72
		c0-0.26,0.04-0.51,0.11-0.74c0.07-0.23,0.18-0.43,0.33-0.6c0.14-0.17,0.32-0.3,0.54-0.4c0.22-0.1,0.47-0.15,0.76-0.15
		c0.2,0,0.4,0.03,0.58,0.08c0.18,0.05,0.35,0.13,0.49,0.23c0.14,0.1,0.26,0.24,0.35,0.39c0.09,0.16,0.14,0.35,0.16,0.56H76.97z"/>
	<path style="fill:#FFFFFF;" d="M78.39,61.94h0.77v0.73h-0.77V61.94z M78.39,63.28h0.77v3.51h-0.77V63.28z"/>
	<path style="fill:#FFFFFF;" d="M82.95,66.01c0,0.1,0.01,0.16,0.04,0.2c0.03,0.04,0.07,0.06,0.15,0.06c0.02,0,0.05,0,0.08,0
		c0.03,0,0.07,0,0.11-0.01v0.54c-0.03,0.01-0.06,0.02-0.1,0.03c-0.04,0.01-0.09,0.02-0.13,0.03c-0.05,0.01-0.09,0.02-0.14,0.02
		c-0.05,0-0.08,0.01-0.12,0.01c-0.16,0-0.29-0.03-0.39-0.1c-0.1-0.06-0.17-0.17-0.2-0.33c-0.15,0.15-0.34,0.26-0.57,0.33
		c-0.22,0.07-0.44,0.1-0.65,0.1c-0.16,0-0.31-0.02-0.46-0.06c-0.15-0.04-0.27-0.11-0.38-0.19c-0.11-0.08-0.2-0.19-0.26-0.32
		c-0.07-0.13-0.1-0.28-0.1-0.45c0-0.22,0.04-0.39,0.12-0.53c0.08-0.14,0.18-0.24,0.31-0.32c0.13-0.08,0.27-0.13,0.43-0.17
		s0.32-0.06,0.49-0.08c0.14-0.03,0.27-0.05,0.4-0.06c0.13-0.01,0.24-0.03,0.34-0.06c0.1-0.03,0.17-0.07,0.23-0.13
		c0.06-0.06,0.08-0.14,0.08-0.26c0-0.1-0.02-0.18-0.07-0.24c-0.05-0.06-0.11-0.11-0.18-0.15c-0.07-0.03-0.15-0.06-0.23-0.07
		c-0.09-0.01-0.17-0.02-0.24-0.02c-0.22,0-0.4,0.05-0.54,0.14c-0.14,0.09-0.22,0.23-0.24,0.42h-0.77c0.01-0.23,0.07-0.41,0.16-0.56
		c0.1-0.15,0.22-0.27,0.36-0.36c0.15-0.09,0.31-0.15,0.5-0.19c0.19-0.04,0.38-0.05,0.57-0.05c0.17,0,0.34,0.02,0.51,0.05
		c0.17,0.04,0.32,0.1,0.45,0.18c0.13,0.08,0.24,0.19,0.32,0.32c0.08,0.13,0.12,0.29,0.12,0.47V66.01z M82.18,65.03
		c-0.12,0.08-0.26,0.12-0.43,0.14c-0.17,0.02-0.34,0.04-0.52,0.07c-0.08,0.01-0.16,0.03-0.24,0.06c-0.08,0.02-0.14,0.06-0.2,0.1
		c-0.06,0.04-0.11,0.1-0.14,0.17c-0.03,0.07-0.05,0.15-0.05,0.26c0,0.09,0.03,0.16,0.07,0.22c0.05,0.06,0.11,0.11,0.18,0.14
		c0.07,0.03,0.15,0.06,0.23,0.07c0.08,0.01,0.16,0.02,0.23,0.02c0.09,0,0.18-0.01,0.28-0.03c0.1-0.02,0.19-0.06,0.28-0.12
		c0.09-0.05,0.16-0.12,0.22-0.21c0.06-0.08,0.09-0.19,0.09-0.31V65.03z"/>
	<path style="fill:#FFFFFF;" d="M83.43,63.28h0.58v-1.05h0.77v1.05h0.7v0.58h-0.7v1.87c0,0.08,0,0.15,0.01,0.21
		c0.01,0.06,0.02,0.11,0.05,0.15c0.03,0.04,0.06,0.07,0.11,0.09c0.05,0.02,0.12,0.03,0.2,0.03c0.05,0,0.11,0,0.16,0
		s0.11-0.01,0.16-0.02v0.6c-0.09,0.01-0.17,0.02-0.25,0.03c-0.08,0.01-0.17,0.01-0.25,0.01c-0.2,0-0.37-0.02-0.49-0.06
		c-0.12-0.04-0.22-0.1-0.29-0.17c-0.07-0.08-0.12-0.17-0.14-0.28c-0.03-0.11-0.04-0.24-0.04-0.39v-2.07h-0.58V63.28z"/>
	<path style="fill:#FFFFFF;" d="M86.07,61.94h0.77v0.73h-0.77V61.94z M86.07,63.28h0.77v3.51h-0.77V63.28z"/>
	<path style="fill:#FFFFFF;" d="M89.3,66.89c-0.28,0-0.53-0.05-0.75-0.14s-0.41-0.22-0.56-0.38c-0.15-0.16-0.27-0.36-0.35-0.58
		c-0.08-0.23-0.12-0.48-0.12-0.75c0-0.27,0.04-0.51,0.12-0.74c0.08-0.23,0.19-0.42,0.35-0.58c0.15-0.16,0.34-0.29,0.56-0.38
		s0.47-0.14,0.75-0.14c0.28,0,0.53,0.05,0.75,0.14c0.22,0.09,0.41,0.22,0.56,0.38c0.15,0.16,0.27,0.36,0.35,0.58
		c0.08,0.23,0.12,0.47,0.12,0.74c0,0.27-0.04,0.52-0.12,0.75c-0.08,0.23-0.19,0.42-0.35,0.58c-0.15,0.16-0.34,0.29-0.56,0.38
		C89.83,66.84,89.58,66.89,89.3,66.89z M89.3,66.28c0.17,0,0.32-0.04,0.45-0.11c0.13-0.07,0.23-0.17,0.31-0.29
		c0.08-0.12,0.14-0.25,0.18-0.4c0.04-0.15,0.06-0.3,0.06-0.45c0-0.15-0.02-0.3-0.06-0.45c-0.04-0.15-0.1-0.28-0.18-0.4
		c-0.08-0.11-0.19-0.21-0.31-0.28c-0.13-0.07-0.28-0.11-0.45-0.11c-0.17,0-0.32,0.04-0.45,0.11c-0.13,0.07-0.23,0.17-0.31,0.28
		c-0.08,0.12-0.14,0.25-0.18,0.4c-0.04,0.15-0.06,0.3-0.06,0.45c0,0.15,0.02,0.31,0.06,0.45c0.04,0.15,0.1,0.28,0.18,0.4
		c0.08,0.12,0.19,0.21,0.31,0.29C88.97,66.24,89.12,66.28,89.3,66.28z"/>
	<path style="fill:#FFFFFF;" d="M91.71,63.28h0.73v0.52l0.01,0.01c0.12-0.19,0.27-0.35,0.46-0.46c0.19-0.11,0.4-0.17,0.63-0.17
		c0.39,0,0.69,0.1,0.91,0.3c0.22,0.2,0.33,0.5,0.33,0.9v2.41h-0.77v-2.21c-0.01-0.28-0.07-0.48-0.18-0.6
		c-0.11-0.12-0.28-0.19-0.51-0.19c-0.13,0-0.25,0.02-0.35,0.07c-0.1,0.05-0.19,0.11-0.26,0.2c-0.07,0.08-0.13,0.18-0.17,0.3
		c-0.04,0.11-0.06,0.23-0.06,0.36v2.07h-0.77V63.28z"/>
</g>
</svg>
