<?xml version="1.0" encoding="utf-8"?>
<!-- Generator: Adobe Illustrator 23.0.2, SVG Export Plug-In . SVG Version: 6.00 Build 0)  -->
<svg version="1.1" id="Layer_1" xmlns="http://www.w3.org/2000/svg" xmlns:xlink="http://www.w3.org/1999/xlink" x="0px" y="0px"
	 width="100px" height="100px" viewBox="0 0 100 100" style="enable-background:new 0 0 100 100;" xml:space="preserve">
<g>
	<path style="fill:#FFFFFF;" d="M24.19,83.36c0.69-0.51,1.4-0.99,2.36-0.64c0.26,0.37,0.57,0.75,0.59,1.42
		c0.02,0.26-0.41,0.26-0.58,0.49c0.47,0.39,0.84,0.84,0.95,1.49c-0.06,0.48-0.33,0.87-0.66,1.27c-0.94-0.03-1.96,0.34-2.82-0.66
		c-0.78,0.93-1.83,0.69-2.8,0.67c-0.46-0.12-0.64-0.64-1.24-0.67c-0.74,1.03-1.88,0.65-2.8,0.69c-0.55-0.23-0.71-0.62-0.98-1.1
		c-0.11,0.42-0.17,0.65-0.23,0.9c-0.49,0.33-1.02,0.23-1.55,0.1c-0.3-0.52-0.27-1.19-0.86-1.62c-0.05,0.52-0.09,1-0.15,1.58
		c-1.62,0.3-3.24,0.12-4.85,0.1c-0.51-0.76-0.01-1.63-0.41-2.43c-0.25,0.84-0.48,1.61-0.7,2.35c-0.56,0.18-1.03,0.23-1.51-0.24
		c-0.18-0.66-0.34-1.43-0.6-2.16c-0.25-0.7-0.52-1.36-0.2-2.09c1.06-0.03,1.11,0.03,1.48,1.86c0.67-0.46,0.5-1.28,0.75-1.97
		c1.38,0,2.71,0,4.02,0c0.36,0.41,0.3,0.81,0.12,1.22c-0.45,0.4-1.09,0-1.6,0.36c0.53,0.4,1.47-0.06,1.66,0.95
		c-0.1,0.91-0.98,0.6-1.8,0.92c0.84,0.29,1.55-0.03,2.25,0.58c0-1.48,0-2.68,0-3.82c0.55-0.42,1.05-0.24,1.59-0.24
		c0.26,0.41,0.53,0.85,0.81,1.31c0.33-0.41-0.01-0.94,0.43-1.28c1.03-0.28,1.13,0.55,1.38,1.26c0.35-0.42,0.56-0.93,1.06-1.19
		c0.46-0.24,0.95-0.12,1.49-0.12c0.34,0.29,0.71,0.61,1.06,0.91c0.36-0.01,0.3-0.34,0.44-0.5c0.31-0.37,0.67-0.55,1.12-0.35
		c0.35,0.16,0.57,0.46,0.57,0.87c0.01,0.89,0.06,1.78-0.19,2.66c0.38,0.01,0.54-0.13,0.54-0.42c0.01-0.67,0.03-1.35,0.02-2.02
		c-0.01-0.55,0.16-0.99,0.72-1.12C23.63,82.53,23.99,82.83,24.19,83.36c-0.57,0.61-0.57,1.23,0,1.84c-0.06,0.88,0.59,0.71,1.11,0.74
		c0.13,0.3,0.3,0.46,0.61,0.19c-0.16-0.23-0.39-0.17-0.61-0.19c-0.23-0.46-0.74-0.49-1.11-0.74C24.19,84.58,24.19,83.97,24.19,83.36
		z M17.42,85.42c0.62,0.04,0.29,0.83,1.06,0.79c0.27-0.68,0.31-1.36-0.05-2.07C17.8,84.31,17.81,84.81,17.42,85.42z M25.77,84.27
		l0.1,0.07l0.01-0.11L25.77,84.27z"/>
	<path style="fill:#FFFFFF;" d="M76.49,67.05c-17.62,0-35.05,0-52.58,0c0-18.12,0-36.17,0-54.26c0,0,0.05-0.05,0.1-0.08
		c0.05-0.04,0.09-0.09,0.15-0.1c0.31-0.03,0.61-0.05,0.92-0.05c17.08,0,34.16,0,51.14,0c0.13,0.13,0.18,0.17,0.22,0.22
		c0.03,0.05,0.07,0.1,0.07,0.16c0.02,17.7,0.03,35.39,0.05,53.09C76.55,66.32,76.51,66.62,76.49,67.05z M76.1,12.99
		c-0.43-0.03-0.73-0.06-1.03-0.06c-16.84,0.01-33.67,0.03-50.51,0.04c-0.05,0-0.11,0.04-0.16,0.07c-0.05,0.04-0.09,0.09-0.13,0.13
		c-0.15,2.08-0.22,42.39-0.09,52.33c0,0.31,0.03,0.61,0.05,0.92c0,0.05,0.06,0.1,0.1,0.15c0.04,0.05,0.08,0.09,0.08,0.1
		c17.23,0,34.42,0,51.68,0C76.1,48.78,76.1,30.98,76.1,12.99z"/>
	<path style="fill:#FFFFFF;" d="M64.75,77.09c0.69-0.29,0.13-1.05,0.71-1.58c0.73-0.43,1.49-1.37,2.77-0.92
		c1.18,0.81,1.87,1.88,1.66,3.56c1.23-1.08,0.42-3.04,2.06-3.7c0.71,0.33,1.17,0.72,1.32,1.59c0.21,1.18,0.65,2.31,1,3.46
		c0.07,0.24,0.09,0.47-0.06,0.72c-0.29,0.28-0.66,0.17-0.99,0.14c-0.47-0.16-0.24-0.68-0.56-0.94c-0.44-0.14-0.94-0.3-1.23,0.25
		c-0.3,0.56-0.71,0.79-1.33,0.74c-0.37-0.03-0.49-0.3-0.71-0.65c-0.75,0.83-1.73,0.73-2.67,0.62c-1.14-0.14-1.5-1.07-1.79-2.09
		c-0.14,0.83-0.19,1.65-1.39,2.07c-0.77,0-1.86,0-3.06,0c-0.23-1.84-0.12-3.64-0.09-5.38c1.9-0.87,2.86-0.67,4.39,0.92
		C64.75,76.24,64.75,76.66,64.75,77.09c-0.3,0.13-0.46,0.3-0.19,0.61C64.79,77.54,64.73,77.3,64.75,77.09z M67.52,79.2
		c0.88-0.91,0.88-0.91,0.91-1.68c0.01-0.3,0-0.61-0.13-0.73c-0.57-0.59-1.07-0.49-1.6-0.29C66.54,77.52,66.36,78.49,67.52,79.2z
		 M63.16,78.33c-0.5-0.17-0.89-0.22-1.24,0.07c-0.13,0.3-0.15,0.57,0.11,0.8C62.79,79.5,62.91,78.91,63.16,78.33z M61.96,76.07
		c-0.14,0.36-0.04,0.53,0.12,0.59c0.22,0.07,0.47,0.1,0.71-0.15C62.53,76.37,62.27,76.24,61.96,76.07z M71.93,77.72l0.07-0.1
		l-0.11-0.01L71.93,77.72z M69.74,79.04l-0.07,0.1l0.11,0.01L69.74,79.04z"/>
	<path style="fill:#FFFFFF;" d="M89.46,86.31c-0.06,0.23-0.06,0.49-0.18,0.69c-0.31,0.5-0.83,0.41-1.32,0.42
		c-1.22,0.03-1.22,0.03-2-0.62c-0.8,0.86-1.84,0.6-2.74,0.6c-0.56-0.17-0.66-0.66-0.97-0.96c-0.11,0.29-0.21,0.57-0.31,0.82
		c-0.36,0.23-0.72,0.16-1.12,0.07c-0.06-0.14-0.18-0.3-0.18-0.46c-0.03-0.8-0.02-1.59-0.02-2.39c0-0.31,0-0.62-0.37-0.75l0,0
		c-0.02-0.56,0.2-0.98,0.77-1.07c0.68-0.11,0.98,0.37,1.18,1.04c0.8-0.67,1.47-1.5,2.92-0.78c0.07,0.06,0.43,0.38,0.79,0.69
		c0.38-0.23,0.12-0.75,0.58-0.95c0.62-0.15,1.23,0.46,2.03,0.03c0.68-0.36,0.96,0,1.48,1.31c0.33-0.45,0.2-1.13,0.66-1.26
		c1.42,0,2.73,0,4.13,0c0.35,0.26,0.2,0.69,0.15,1.1c-0.43,0.5-1.07,0.07-1.7,0.47c0.47,0.11,0.82,0.19,1.18,0.27
		c0.31,0.37,0.26,0.77,0.08,1.17c-0.32,0.38-0.87,0.01-1.19,0.38c0.44,0.42,1.09-0.04,1.49,0.31c0.24,0.26,0.18,0.5,0.11,0.83
		c-1.47,0.31-2.98,0.09-4.23,0.12C89.86,87.21,89.95,86.48,89.46,86.31c-0.02-0.21,0.03-0.45-0.26-0.66
		C89.1,85.97,89.11,86.19,89.46,86.31z M83.63,86.26c1.11,0.05,1.54-1.03,2.41-0.87c0.1-0.39,0.11-0.61-0.15-0.84
		c-0.88,1.04-1.27-0.88-2.22-0.29C83.47,84.82,83.56,85.46,83.63,86.26z"/>
	<path style="fill:#FFFFFF;" d="M59.66,87.02c-0.45,0.44-0.69,0.37-1.02,0.31c-0.37-0.95-0.02-2.02-0.22-2.93
		c-0.35-0.47-0.93-0.14-1.15-0.59c-0.26,0.17-0.22,0.34-0.17,0.52c0.26,0.96,0.74,1.89,0.57,2.87c-0.86,0.53-1.17-0.29-1.83-0.52
		c-0.77,0.89-1.86,0.81-2.93,0.69c-0.58-0.29-0.14-0.96-0.49-1.27c-0.26-0.19-0.49-0.16-0.73-0.07c-0.38,0.32-0.1,0.83-0.32,1.16
		c-0.29,0.27-0.57,0.26-0.93,0.01c0-1.39,0-2.85,0-4.32c0.2-0.27,0.49-0.28,0.81-0.15c0.43,0.43,0.06,1.06,0.23,1.36
		c0.3,0.44,0.56,0.32,0.77,0.34c0.63-0.44,0.05-1.22,0.57-1.74c0.69-0.17,1.15,0.12,1.21,0.88c0.05,0.72,0.01,1.45,0.24,2.19
		c0.24-0.95,0.48-1.9,0.73-2.9c1.16-0.5,2.35,0.04,3.51-0.19c1.11-0.23,2.3-0.05,3.66-0.05c0,0.91,0,1.69,0,2.47
		c0,0.72,0,1.45,0,2.04c-0.49,0.38-0.86,0.28-1.31,0.21c-0.39-0.95-0.02-2.02-0.23-2.96c-0.29-0.33-0.56-0.31-0.97-0.08
		C59.66,85.19,59.66,86.15,59.66,87.02z"/>
	<path style="fill:#FFFFFF;" d="M39.77,78.39c0.46,0.52,0.87,1.05,0.53,1.8c-0.3,0.33-0.68,0.16-0.99,0.2
		c-0.65-0.44-0.61-1.2-0.96-1.75c-0.48,0.48-0.48,0.48-0.58,1.51c-0.35,0.37-0.76,0.28-1.29,0.13c-0.21-1.77-0.1-3.58-0.08-5.36
		c1.81-0.95,3.04-0.15,4.2,0.98c0.32-0.57,0.65-1.07,1.21-1.36c0.61,0.11,0.83,0.5,0.83,1.05c0,1.53,0,3.06,0,4.63
		c-0.69,0.28-1.23,0.33-1.73-0.31c-0.31-0.83,0.08-1.78-0.24-2.71C40.34,77.62,40.06,78,39.77,78.39z M38.82,76.54
		c-0.33-0.25-0.58-0.23-0.83-0.02C38.2,76.78,38.44,76.76,38.82,76.54z"/>
	<path style="fill:#FFFFFF;" d="M46.17,87.34c-1.45,0-2.78,0-4.28,0c0-1.32,0-2.58,0-3.83c-0.77,1.18-1.73,2.21-1.49,3.58
		c-0.45,0.47-0.86,0.28-1.43,0.26c0.37-1.71-0.86-2.97-1.21-4.43c1.44-0.81,1.37,0.74,2.08,1.06c0.28-0.45,0.56-0.89,0.82-1.32
		c0.96,0,1.88,0,2.74,0c0.53,0.35,0.13,1,0.56,1.36c0.89-0.04,0.22-0.97,0.79-1.31c0.36-0.16,0.84-0.1,1.3,0
		C46.4,83.04,46.45,84.81,46.17,87.34z"/>
	<path style="fill:#FFFFFF;" d="M80.24,83.72c0,0.86,0,1.72,0,2.53c-0.19,0.54-0.57,0.84-0.95,1.09c-1.98,0-3.93,0-5.96,0
		c0-1.52,0-2.98,0-4.53c0.81-0.37,1.72-0.15,2.57-0.16c0.4,0.4,0.32,0.81,0.18,1.23c-0.45,0.42-1.08,0.05-1.65,0.37
		c0.56,0.42,1.5-0.05,1.69,1.06c-0.04,0.88-1.09,0.43-1.7,0.84c0.69,0.25,1.29,0.16,1.93,0.09c0.51-1.02-0.05-2.17,0.32-3.14
		c0.64-0.75,1.42-0.39,2.14-0.47C79.28,82.99,79.76,83.36,80.24,83.72L80.24,83.72z M78.24,86.28c1.22-1.31,1.2-1.58-0.14-2.08
		C78.04,84.9,77.89,85.57,78.24,86.28z"/>
	<path style="fill:#FFFFFF;" d="M29.58,74.59c0.37-0.15,0.9-0.14,1.52,0.08c0,1.81,0,3.63,0,5.5c-0.29,0.37-0.71,0.24-1.13,0.17
		c-0.5-0.43-0.07-1.07-0.38-1.56c-0.08,0.05-0.21,0.1-0.21,0.15c-0.04,0.55,0,1.13-0.64,1.42c-1.12-0.02-0.68-1.08-1.06-1.69
		c-0.33,0.71,0.03,1.97-1.48,1.67c-0.35-0.9-0.13-1.88-0.17-2.83c-0.04-0.91-0.01-1.83-0.01-2.73c0.65-0.4,1.23-0.32,1.7-0.15
		c0.65,0.43,0.46,1.06,0.58,1.65c0.23-0.15,0.4-0.22,0.5-0.34C29.09,75.61,28.88,75.06,29.58,74.59z"/>
	<path style="fill:#FFFFFF;" d="M53.84,74.5c0.3,0.85,1.14,1.26,1.47,2.1c0.38-0.4,0.15-0.85,0.23-1.24
		c0.12-0.56,0.44-0.88,1.02-0.82c0.48,0.05,0.77,0.38,0.79,0.86c0.03,0.74,0.02,1.47,0.02,2.21c0,0.85,0,1.71,0,2.54
		c-1.34,0.26-1.61,0.16-2.18-0.75c-0.31-0.49-0.33-1.18-1.11-1.49c0,0.8,0,1.52,0,2.14c-0.47,0.45-0.87,0.37-1.28,0.24
		c-0.06-0.11-0.17-0.21-0.18-0.32c-0.02-1.41-0.03-2.82-0.05-4.24C52.57,75.04,52.8,74.56,53.84,74.5z"/>
	<path style="fill:#FFFFFF;" d="M72.82,87.26c-1.48,0.41-2.79-0.17-4.08,0.12c-0.34-0.18-0.66-0.4-0.64-0.82
		c0.07-1.3-0.4-2.68,0.55-3.85c0.49-0.13,0.96-0.16,1.43,0.02c0.4,0.46,0.05,1.08,0.32,1.58c0.55-0.4,0.52-1.06,0.81-1.57
		c0.47-0.2,0.94-0.14,1.53-0.01C72.99,84.19,72.85,85.69,72.82,87.26z"/>
	<path style="fill:#FFFFFF;" d="M10.87,74.69c0.03,0.64,0.05,1.18,0.08,1.71c0.34,0.45,0.77,0.31,1.22,0.24
		c0.52-0.58-0.19-1.67,0.9-2.08c0.57,0.02,0.82,0.54,1.15,0.98c0,1.41,0,2.81,0,4.17c-0.35,0.75-0.92,0.78-1.59,0.62
		c-0.49-0.56-0.03-1.31-0.36-1.93c-0.36-0.29-0.76-0.25-1.26-0.01c-0.05,0.55-0.09,1.15-0.14,1.74c-0.33,0.44-0.77,0.22-1.27,0.24
		c-0.28-1.73-0.17-3.43-0.09-5.12C9.53,74.65,10.07,74.36,10.87,74.69z"/>
	<path style="fill:#FFFFFF;" d="M86.15,78.46c0-0.59,0-1.2,0-1.79c0.48-0.73,0.97-1.4,1.71-1.88c0.59-0.38,1.07-0.34,1.69-0.02
		c1.62,0.84,1.96,2.19,1.69,3.9c-0.33,0.49-0.71,1.04-1.1,1.62C88.45,80.63,86.97,80.5,86.15,78.46z M88.68,78.95
		c0.75-0.76,0.76-0.76,0.77-1.57c0-0.3,0.07-0.62-0.17-0.88c-0.4-0.2-0.79-0.23-1.25,0.11C88.07,77.37,87.61,78.27,88.68,78.95z"/>
	<path style="fill:#FFFFFF;" d="M79.55,80.34c0-1.9,0-3.6,0-5.24c0.62-0.91,1.48-0.48,2.24-0.59c0.62,0.66,1.63,0.84,2.13,1.85
		c0,0.48,0.03,1.09-0.01,1.7c-0.08,1.43-0.86,2.24-2.26,2.35c-0.36,0.03-0.73,0.01-1.1,0C80.27,80.4,79.98,80.37,79.55,80.34z
		 M82.06,76.45c-0.48-0.07-0.72-0.14-1.04,0.17c-0.02,0.68-0.2,1.48,0.21,2.37C82.48,78.34,81.95,77.38,82.06,76.45z"/>
	<path style="fill:#FFFFFF;" d="M79.17,76.37c-0.2,0.84-0.55,1.4-0.98,1.91c0.01,0.67,0.75,1.14,0.51,1.87
		c-0.35,0.42-0.78,0.18-1.15,0.22c-0.4-0.59-0.34-1.35-1.02-1.76c-0.65,0.39-0.1,1.16-0.5,1.61c-0.39,0.29-0.79,0.16-1.17,0.09
		c-0.34-2.72-0.25-4.55,0.27-5.68C76.9,74.16,78.17,74.85,79.17,76.37z M76.35,76.51c0.26,0.3,0.51,0.3,0.77,0
		C76.86,76.3,76.61,76.3,76.35,76.51z"/>
	<path style="fill:#FFFFFF;" d="M16.09,76.45c0.66,0.44,1.55,0.06,1.77,1c0,1.06-1.28,0.47-1.84,1.14c0.79,0.65,1.72,0.09,2.46,0.49
		c0.25,0.37,0.24,0.76-0.02,1.25c-1.16,0-2.37,0-3.66,0c-0.38-0.82-0.15-1.73-0.18-2.62c-0.04-0.91-0.01-1.81-0.01-2.67
		c1.14-0.93,2.33-0.36,3.34-0.52c0.79,0.38,0.78,0.96,0.62,1.67C17.85,76.52,17.03,76.24,16.09,76.45z"/>
	<path style="fill:#FFFFFF;" d="M35.54,80.34c-1.19,0-2.27,0-3.35,0c-0.44-1.73-0.36-4.54,0.18-5.71c0.98-0.22,2-0.11,3-0.07
		c0.42,0.55,0.19,1.08,0.21,1.54c-0.65,0.51-1.4,0.01-2,0.41c0.29,0.42,0.82,0.05,1.17,0.41c0.24,0.27,0.1,0.64,0.1,0.95
		c-0.3,0.59-1.12,0.06-1.42,0.78c0.6,0.58,1.44,0.04,2.04,0.46C35.71,79.42,35.61,79.78,35.54,80.34z"/>
	<path style="fill:#FFFFFF;" d="M25.79,79.95c-0.49,0.54-0.86,0.45-1.26,0.42c-0.47-0.26-0.51-1.13-1.25-1.05
		c-0.73,0-0.81,0.69-1.18,1.04c-0.37,0.04-0.74,0.15-1.05-0.11c-0.2-0.28-0.26-0.65-0.12-0.87c0.78-1.24,0.96-2.69,1.43-4.03
		c0.22-0.62,0.56-0.91,1.38-0.77C25.01,76.14,24.75,78.35,25.79,79.95z M23.28,77.56l-0.07,0.1l0.11,0.01L23.28,77.56z"/>
	<path style="fill:#FFFFFF;" d="M47.42,79.67c-0.35,0.24-0.7,0.47-1.05,0.71c-0.67,0-1.34,0-2.01,0c-1.45-0.98-1.62-2.38-1.24-3.89
		c0.29-1.13,1.51-1.87,3.01-1.94c0.46,0.58,1.45,0.87,1.2,1.98c-0.84,0.5-1.35-0.4-2.13-0.4c-0.52,0.93-0.65,1.84,0.1,2.7
		c0.8,0.2,1.05-1.05,2.03-0.4C47.58,78.69,47.36,79.2,47.42,79.67L47.42,79.67z"/>
	<path style="fill:#FFFFFF;" d="M47.42,79.67c0.47-0.26,0.65-0.76,0.69-1.2c0.09-0.93,0.59-1.71,0.75-2.59
		c0.13-0.68,0.55-1.04,1.11-1.36c0.74,0.33,1.09,0.84,1.17,1.67c0.06,0.64,0.51,1.23,0.61,1.87c0.11,0.7,0.74,1.32,0.3,2.17
		c-0.29,0.28-0.7,0.2-1.1,0.08c-0.34-0.24-0.13-0.74-0.56-0.97c-0.24,0-0.54,0-0.8,0c-0.42,0.21-0.29,0.67-0.44,0.91
		c-0.56,0.24-1.03,0.19-1.48,0.09C47.4,80.17,47.45,79.9,47.42,79.67L47.42,79.67z M49.83,77.56l-0.07,0.1l0.11,0.01L49.83,77.56z"
		/>
	<path style="fill:#FFFFFF;" d="M7.96,80.28c-0.73,0.13-1.2,0.22-1.78-0.07c0-1.16,0-2.37,0-3.37c-0.33-0.56-0.8-0.43-1-0.58
		c-0.28-0.59-0.15-1.06-0.1-1.64c1.3,0,2.55,0,3.8,0c0.31,0.49,0.17,0.98,0.14,1.43c-0.2,0.41-0.72,0.19-1.06,0.69
		C7.96,77.77,7.96,78.98,7.96,80.28z"/>
	<path style="fill:#FFFFFF;" d="M93.21,78.82c-0.16,0.51,0.07,1.03-0.24,1.45c-0.36,0.21-0.71,0.16-1.06,0.06
		c-0.42-1.81-0.34-4.54,0.2-5.7c0.86-0.2,1.75-0.12,2.63-0.07c0.42,0.54,0.19,1.07,0.21,1.53c-0.53,0.46-1.15,0.11-1.78,0.45
		c0.77,0.29,1.18,0.72,1.09,1.51C94.18,78.68,93.58,78.45,93.21,78.82z"/>
	<path style="fill:#FFFFFF;" d="M29.88,87.36c-0.52-1.46,0.44-2.56,0.22-3.74c0.49-0.31,0.86-0.63,1.34-0.62
		c1.4,0.29,1.03,1.87,2.02,2.46c-0.49,0.61-0.23,1.18-0.08,1.84C32.18,87.49,31.05,87.43,29.88,87.36z M30.93,86.11l0.1,0.07
		l0.01-0.11L30.93,86.11z"/>
	<path style="fill:#FFFFFF;" d="M66.15,84.69c-1.03,0.29-1.23-0.53-1.8-0.55c-0.9,0.91-0.9,0.91-0.15,2.13
		c0.63-0.11,1.1-1.26,1.95-0.46c0.23,0.85-0.42,1.16-0.95,1.58c-0.55,0-1.09,0-1.61,0c-0.43-0.22-0.72-0.53-1.01-0.96
		c0-0.71,0-1.5,0-2.43c0.13-0.47,0.77-0.76,0.86-1.36c0.67,0,1.22,0,1.81,0C65.88,83.22,66.31,83.86,66.15,84.69z"/>
	<path style="fill:#FFFFFF;" d="M46.8,82.67c0.78,0,1.44,0,2.19,0c0.4,0.15,0.71,0.52,0.99,0.97c0,0.63,0.18,1.3-0.17,1.92
		c-0.36,0.58-1.05,0.22-1.45,0.51c-0.35,0.37-0.03,0.9-0.39,1.21c-0.35,0.19-0.7,0.16-1.17,0C46.8,85.83,46.8,84.34,46.8,82.67z
		 M48.72,84.3c-0.26-0.3-0.51-0.3-0.76,0C48.22,84.51,48.47,84.51,48.72,84.3z"/>
	<path style="fill:#FFFFFF;" d="M35.28,87.34c0-1.5,0-2.78,0-4.04c0.25-0.51,0.63-0.81,1.18-0.62c0.53,0.18,0.68,0.66,0.63,1.19
		c-0.06,0.77,0.17,1.56-0.25,2.26c0.55,0.36,1.19-0.06,1.62,0.39c0.1,0.24,0.12,0.47-0.11,0.82C37.44,87.48,36.44,87.44,35.28,87.34
		z"/>
	<path style="fill:#FFFFFF;" d="M73.55,32.7c0,10.34,0,20.6-0.01,30.85c0,0.15-0.2,0.3-0.37,0.53c-15.34,0-30.74,0-46.16,0
		c-0.39-0.38-0.22-0.9-0.22-1.37c-0.02-1.9,0.04-3.81-0.02-5.71c-0.04-1.14,0.17-2.17,0.74-3.15c0.4-0.68,0.73-1.39,1.12-2.13
		c1.27,0,2.49,0,3.89,0c1.27,0.86,1.52,2.52,2.26,3.91c0.34,0,0.7,0,1.01,0c-1.69-3.88-3.18-7.81-4.93-11.76
		c-1.61,2.55-2.21,5.34-3.73,8.14c-0.5-1.26-0.3-2.16-0.34-3.03c-0.03-0.86-0.01-1.72-0.01-2.58c0-0.92,0-1.84,0-2.76s0-1.84,0-2.76
		c0-0.86,0-1.72,0-2.58c0-0.91,0-1.83,0-2.49c0.31-0.6,0.66-0.74,1-0.86c2.79-0.99,5.53-2.14,8.42-2.79
		c1.43-0.33,2.7-1.02,4.14-1.32c2.89-0.59,5.72-1.49,8.62-1.96c1.41-0.23,2.92-0.3,4.32-0.54c2.39-0.4,4.75-0.17,7.12-0.29
		c2.26-0.11,4.51,0.15,6.66,0.78C69.49,29.53,71.9,30.42,73.55,32.7z M68.37,55.61c0.53-1.44,0.54-10.16,0.17-11.69
		c-0.57,0.08-1.2-0.24-1.78,0.4c-0.83,3.07-1.41,6.31-2.68,9.82c-1.29-3.59-1.71-7.01-2.93-10.19c-0.49-0.03-0.98-0.18-1.57,0.21
		c0,3.48,0,7.03,0,10.58c0,0.24,0.05,0.48,0.09,0.72c0.01,0.05,0.07,0.11,0.12,0.14c0.05,0.02,0.12,0.01,0.35,0.01
		c0.38-0.73,0.12-1.58,0.16-2.39c0.05-0.92,0.01-1.84,0.01-2.76c0-0.86,0-1.72,0-2.58c0-0.91,0-1.82,0-2.84
		c0.78,0.41,1.07,1.04,1.05,1.59c-0.02,0.77,0.28,1.44,0.46,2.13c0.59,2.32,1.3,4.61,1.95,6.88c0.68-0.01,0.88-0.35,0.95-0.82
		c0.47-2.99,1.82-5.74,2.29-8.74c0.06-0.36,0.13-1.03,1.04-0.95c0,1.14,0,2.29,0,3.44c0,1.23-0.02,2.46,0.01,3.68
		C68.1,53.37,67.96,54.51,68.37,55.61z M36.85,43.9c-0.27,3.2-0.18,10.39,0.14,11.8c1.07,0,2.17-0.01,3.26,0
		c0.38,0,0.7-0.1,1.04-0.27c1.81-0.88,2.29-3.58,0.92-5.14c-0.32-0.36-0.91-0.4-1-0.72c-0.17-0.82,0.38-1.06,0.61-1.47
		c1.08-1.92-0.1-4.07-2.33-4.2C38.66,43.86,37.8,43.9,36.85,43.9z M46.63,53.85c-1.01-3.61-1.89-6.76-2.76-9.88
		c-0.33-0.06-0.57-0.08-0.79,0.16c0.34,1.8,0.83,3.59,1.44,5.34c0.64,1.82,1.08,3.69,1.48,5.58c0.08,0.35,0.37,0.64,0.8,0.59
		c0.46-0.19,0.64-0.6,0.76-1c0.99-3.41,1.95-6.82,2.92-10.23c0.03-0.11,0.09-0.22,0.11-0.34c0-0.03-0.09-0.08-0.13-0.12
		c-0.24-0.05-0.48-0.08-0.65,0.11c-0.5,1.57-0.85,3.15-1.44,4.67C47.76,50.26,47.61,51.96,46.63,53.85z M52.62,43.99
		c-0.51,1.46-0.51,10.2-0.14,11.7c1.76,0,3.53,0,5.31,0c0.32,0,0.62-0.04,0.58-0.59c-1.74-0.4-3.59,0.12-5.42-0.3
		c0-1.32,0-2.54,0-3.77c0-1.17,0.03-2.34-0.01-3.5C52.9,46.35,53.12,45.14,52.62,43.99z"/>
	<path style="fill:#FFFFFF;" d="M73.97,15.57c0,3.13,0,6.07,0,9.02c0,0.23-0.05,0.47-0.07,0.65c-0.72,0.53-1.29-0.02-1.77-0.21
		c-2.08-0.8-4.2-1.17-6.42-1.04c-0.86,0.05-1.73,0.08-2.58-0.01c-1.49-0.16-2.91,0.3-4.34,0.48c-1.49,0.19-2.97,0.52-4.47,0.62
		c-0.51,0.04-0.93,0.31-1.4,0.35c-2.48,0.23-4.84,1-7.25,1.52c-4.25,0.92-8.4,2.2-12.56,3.41c-2.07,0.6-4.17,1.18-6.14,1.99
		c-0.42-0.22-0.54-0.54-0.54-0.94c0-5.22,0-10.43,0-15.57c0.13-0.13,0.17-0.18,0.22-0.21c0.05-0.03,0.11-0.07,0.16-0.07
		c15.36-0.02,30.72-0.03,46.08-0.05C73.16,15.51,73.46,15.54,73.97,15.57z"/>
	<path style="fill:#FFFFFF;" d="M31.02,46.8c0.19,1.31,1.18,2.2,1.26,3.46c0.01,0.17-0.08,0.34-0.15,0.57c-0.98,0-1.94,0-2.98,0
		c-0.45-0.87,0.23-1.49,0.58-2.11C30.08,48.12,29.9,47.2,31.02,46.8z"/>
	<path style="fill:#FFFFFF;" d="M37.69,54.75c-0.47-1.28-0.14-2.68-0.21-4.05c-0.02-0.42,0.27-0.66,0.67-0.89
		c0.76,0.07,1.53,0.56,2.33,0.36c0.58,0.4,1.01,0.83,1.38,1.37c0,0.52,0,1.06,0,1.61C40.37,55.01,40.04,55.14,37.69,54.75z"/>
	<path style="fill:#FFFFFF;" d="M40.43,48.57c-0.96,0.07-1.86,1.04-2.89,0.03c0-1.14,0-2.27,0-3.51c1.18-0.07,2.34-0.4,3.22,0.65
		C41.35,46.44,41.27,46.92,40.43,48.57z"/>
</g>
</svg>
